<svg width="81.250000" height="81.250000" viewBox="0 0 81.25 81.25" fill="none" xmlns="http://www.w3.org/2000/svg" xmlns:xlink="http://www.w3.org/1999/xlink">
	<desc>
			Created with Pixso.
	</desc>
	<defs/>
	<path id="Vector" d="M57.81 37.5C57.81 40.89 56.8 44.22 54.91 47.04C53.02 49.87 50.34 52.07 47.2 53.37C44.06 54.68 40.6 55.02 37.27 54.35C33.93 53.69 30.87 52.05 28.47 49.65C26.06 47.24 24.43 44.18 23.76 40.85C23.1 37.51 23.44 34.06 24.74 30.92C26.04 27.78 28.24 25.09 31.07 23.2C33.9 21.32 37.22 20.31 40.62 20.31C45.18 20.31 49.55 22.13 52.77 25.35C55.99 28.57 57.8 32.94 57.81 37.5ZM81.25 40.62C81.25 48.65 78.86 56.51 74.4 63.19C69.93 69.87 63.59 75.08 56.17 78.15C48.74 81.23 40.57 82.03 32.69 80.46C24.81 78.9 17.58 75.03 11.89 69.35C6.21 63.66 2.34 56.43 0.78 48.55C-0.79 40.67 0.01 32.5 3.09 25.07C6.16 17.65 11.37 11.31 18.05 6.84C24.73 2.38 32.59 0 40.62 0C51.39 0.01 61.72 4.29 69.33 11.91C76.95 19.52 81.23 29.85 81.25 40.62ZM75 40.62C74.99 35.99 74.05 31.41 72.24 27.16C70.42 22.9 67.77 19.06 64.43 15.85C61.1 12.64 57.15 10.14 52.82 8.5C48.5 6.85 43.89 6.09 39.26 6.27C20.87 6.98 6.19 22.31 6.25 40.72C6.26 49.1 9.35 57.18 14.93 63.44C17.2 60.14 20.09 57.31 23.43 55.11C23.72 54.92 24.06 54.83 24.4 54.86C24.74 54.88 25.06 55.01 25.32 55.24C29.57 58.91 34.99 60.93 40.61 60.93C46.22 60.93 51.65 58.91 55.9 55.24C56.15 55.01 56.48 54.88 56.82 54.86C57.16 54.83 57.5 54.92 57.78 55.11C61.13 57.31 64.02 60.14 66.3 63.44C71.9 57.16 75 49.04 75 40.62Z" fill="#0091D4" fill-opacity="1.000000" fill-rule="nonzero"/>
</svg>
