<?xml version="1.0" encoding="UTF-8"?>
<svg id="Layer_2" xmlns="http://www.w3.org/2000/svg" xmlns:xlink="http://www.w3.org/1999/xlink" viewBox="0 0 333.04 514.13">
  <defs>
    <style>
      .cls-1 {
        fill: #303b70;
      }

      .cls-2 {
        fill: #e8f6f9;
      }

      .cls-3 {
        fill: none;
      }

      .cls-4 {
        fill: #f58431;
      }

      .cls-5 {
        clip-path: url(#clippath-1);
      }

      .cls-6 {
        fill: #60ccf2;
      }

      .cls-7 {
        fill: #b54e36;
      }

      .cls-8 {
        fill: #083551;
      }

      .cls-9 {
        fill: #0091d4;
      }

      .cls-10 {
        clip-path: url(#clippath);
      }
    </style>
    <clipPath id="clippath">
      <path class="cls-3" d="M155.45,421.77s-27.77,37.19-36.71,40.23-14.12,10.01-19.49,10.55c-5.36.54-20.56,2.86-15.02,15.91s45.77,13.59,56.86,8.76c11.09-4.83,36.83-17.52,51.85-19.13,15.02-1.61,27-6.19,27.89-14s-5.72-12.82-5.54-18.54c.18-5.72-6.97-14.66-7.15-17.16s-3.04-7.87-9.48-.18-8.76,14.84-25.39,11.09c0,0-1.43-6.79-8.94-13.95-7.51-7.15-8.88-3.58-8.88-3.58Z"/>
    </clipPath>
    <clipPath id="clippath-1">
      <path class="cls-6" d="M284.96,319.13c-15.93-7.8-12.98-54.55-117.26-63.48-2.99-.26-7.29-24.76,2.58-30.47C303.32,148.08,191.64,7.48,106.49,44.28c-20.87,9.02-51.7,26.71-51.7,91.62,0,28.09-12.36,67.79,27.83,73.05,44.48,5.82-36.77,52.74-36.77,108.51,0,70.26,63.76,71.84,88.8,71.76,95.94-.31,143.63,12.3,194.39-44.01,17.78-19.73-28.44-18.41-44.08-26.07Z"/>
    </clipPath>
  </defs>
  <g id="Layer_2-2" data-name="Layer_2">
    <g>
      <g>
        <path class="cls-3" d="M165.47,439.91c-.08,2.6,1.24,5.06,2.63,7.69,1.48,2.81,3.02,5.83,3,9.46,2.6,4.67,4.51,13.63,7.13,18.2-27.78,16.17-44.81,13.45-54.48,16.71-7.62,2.57-18.88,11.89-36.06,15.27.25.11.5.22.77.31,3.57,1.18,19.9,5.92,33.27,6.51,1.03.05,2.04.07,3.03.07,24.59,0,39.44-13.36,48.8-16.51,9.66-3.26,26.7-.53,54.48-16.71-2.62-4.57-4.53-13.53-7.12-18.2.04-7.03-5.79-11.78-5.62-17.16.18-5.72-6.97-14.66-7.15-17.16-.11-1.54-1.24-4.16-3.58-4.16-1.47,0-3.42,1.03-5.89,3.98-5.22,6.23-7.73,12.12-17.36,12.12-2.25,0-4.88-.32-8.02-1.03,0,0-1.43-6.79-8.94-13.95-3.08-2.94-5.13-4.06-6.47-4.37.27.62.42,1.25.46,1.77.18,2.5,7.33,11.44,7.15,17.16Z"/>
        <path class="cls-1" d="M123.45,433.65c7.66,1.73,12.29,1.14,15.68-.75,1.8-2.22,3.49-4.34,5-6.26l-.46-54.29h-29l.41,47.92c7,6.94,8.38,13.38,8.38,13.38Z"/>
        <path class="cls-1" d="M178.22,475.27c-2.62-4.57-4.53-13.53-7.13-18.2,0,.45-.03.91-.08,1.38-.89,7.81-12.87,12.39-27.89,14-15.02,1.61-40.76,14.3-51.85,19.13-1.83.8-4.47,1.44-7.6,1.92-.35,4.74-1.09,11.44,4.01,13.75,17.18-3.38,28.44-12.71,36.06-15.27,9.66-3.26,26.7-.53,54.48-16.71Z"/>
        <path class="cls-1" d="M77.6,494.14c-15.55,1.06-37.26-1.49-42.6-10.19-.38.08-.75.15-1.13.23.68,3.92-2.97,15.18,4.76,17.73,3.57,1.18,19.9,5.92,33.27,6.51,2.79.12,5.46.06,8.02-.13-2.91-4.48-2.59-10.46-2.32-14.15Z"/>
        <path class="cls-4" d="M36.19,476.02c3.49,1.2,6.62,3.22,10.31,4.18,1.02.27,2.05.5,3.08.71,10.66-2.32,20.99-4.77,31.49-7.52,3.62-3.72,9.52-6.01,17.58-6.81,1.09-.11,3.43-1.77,5.5-3.24,3.27-2.32,7.34-5.21,12.63-7.01.33-.13,2.8-1.28,10.09-9.15h-11.58l-.23-26.91c-.19-.19-.37-.37-.56-.56-7.51-7.15-8.88-3.58-8.88-3.58,0,0-6.81,9.11-14.76,18.68.08.07.16.13.24.21l8.43,9.09c.94,1.01.88,2.59-.13,3.53-.48.45-1.09.67-1.7.67-.67,0-1.34-.27-1.83-.8l-8.23-8.87c-1.64,1.92-3.3,3.81-4.93,5.61l7.32,7.03c1,.96,1.03,2.54.07,3.54-.49.51-1.15.77-1.8.77s-1.25-.23-1.73-.7l-7.27-6.99c-4.21,4.36-7.97,7.64-10.37,8.46-8.94,3.04-14.12,10.01-19.49,10.55-4.24.42-14.64,1.97-16.05,9.07.95-.24,1.9-.26,2.81.05ZM111.74,434.13c1.43,0,2.59,1.16,2.59,2.59s-1.16,2.59-2.59,2.59-2.59-1.16-2.59-2.59,1.16-2.59,2.59-2.59Z"/>
        <path class="cls-4" d="M155.45,421.77s-4.9,6.56-11.24,14.39l.09,11.01h-9.35c-6.43,7.31-12.74,13.65-16.22,14.83-.92.31-1.78.67-2.63,1.06,14.05-4.71,28.2-9.38,42.11-8.6.68-.53,1.34-1.08,1.97-1.69,1.94-1.85,3.72-4.1,6.28-4.9.53-.17,1.07-.25,1.61-.27-1.38-2.64-2.71-5.09-2.63-7.69.18-5.72-6.97-14.66-7.15-17.16-.04-.51-.19-1.15-.46-1.77-.29-.07-.55-.1-.78-.1-1.28,0-1.62.89-1.62.89Z"/>
        <path class="cls-4" d="M126.88,447.17c2.46-2.65,5.46-6.07,9.12-10.46,1.07-1.28,2.11-2.56,3.13-3.81-3.39,1.89-8.01,2.48-15.68.75,0,0-1.37-6.44-8.38-13.38l.23,26.91h11.58Z"/>
        <path class="cls-4" d="M144.21,436.16c-2.9,3.58-6.09,7.41-9.26,11.01h9.35l-.09-11.01Z"/>
        <path class="cls-4" d="M81.07,473.4c-10.5,2.75-20.83,5.21-31.49,7.52,6.85,1.37,13.93,1.44,20.85.69,2.3-.25,4.58-.59,6.86-1,.34-1.8.97-3.3,1.66-4.46.59-.99,1.29-1.91,2.12-2.75Z"/>
        <path class="cls-4" d="M84.17,479.12c15.73-3.93,30.64-10.66,46.37-14.6,9.6-2.4,20.01-4.04,27.69-10.06-13.91-.78-28.06,3.89-42.11,8.6-7.37,3.35-12.05,9.01-16.86,9.49-3.69.37-12.04,1.59-15.08,6.56Z"/>
        <path class="cls-1" d="M111.74,439.31c1.43,0,2.59-1.16,2.59-2.59s-1.16-2.59-2.59-2.59-2.59,1.16-2.59,2.59,1.16,2.59,2.59,2.59Z"/>
        <path class="cls-6" d="M171.09,457.07c.02-3.63-1.52-6.65-3-9.46-.54.02-1.08.11-1.61.27-2.56.8-4.34,3.05-6.28,4.9-.63.6-1.3,1.16-1.97,1.69,4.28.24,8.54,1,12.77,2.43.03.05.06.12.09.17Z"/>
        <path class="cls-6" d="M46.5,480.21c-3.69-.97-6.81-2.99-10.31-4.18-.91-.31-1.86-.29-2.81-.05-.37,1.87-.13,4.12,1.03,6.85.17.39.37.77.59,1.14,4.96-.99,9.8-2,14.58-3.04-1.03-.21-2.06-.44-3.08-.71Z"/>
        <path class="cls-6" d="M77.6,494.14c.01-.17.03-.34.04-.5.27-3.55-.5-8.58-.51-8.62-.18-1.64-.09-3.1.16-4.41-2.27.41-4.56.75-6.86,1-6.93.74-14.01.68-20.85-.69-4.78,1.04-9.62,2.05-14.58,3.04,5.34,8.7,27.04,11.25,42.6,10.19Z"/>
        <path class="cls-6" d="M143.12,472.45c15.02-1.61,27-6.19,27.89-14,.05-.47.08-.93.08-1.38-.03-.06-.06-.12-.09-.17-4.23-1.44-8.49-2.19-12.77-2.43-7.67,6.02-18.09,7.65-27.69,10.06-15.73,3.94-30.64,10.67-46.37,14.6-1.38,2.25-1.67,5.28.06,9.35.17.39.37.77.59,1.14-.38.08-.75.15-1.13.23.16.9.08,2.19-.03,3.67,3.13-.47,5.77-1.12,7.6-1.92,11.09-4.83,36.83-17.52,51.85-19.13Z"/>
        <path class="cls-1" d="M87.57,434.89c-1.01.94-1.07,2.52-.13,3.53l.2.22c1.09-1.27,2.17-2.55,3.23-3.83-.95-.8-2.36-.79-3.3.08Z"/>
        <path class="cls-1" d="M97.71,448.31c.61,0,1.22-.22,1.7-.67,1.01-.94,1.07-2.52.13-3.53l-8.43-9.09c-.07-.08-.16-.14-.24-.21-1.06,1.28-2.14,2.56-3.23,3.83l8.23,8.87c.49.53,1.16.8,1.83.8Z"/>
        <path class="cls-1" d="M82.62,444.16c-1-.96-2.58-.93-3.53.07-.96,1-.93,2.58.07,3.54l.14.14c1.11-1.15,2.26-2.37,3.42-3.65l-.09-.09Z"/>
        <path class="cls-1" d="M88.3,455.59c.66,0,1.31-.26,1.8-.77.96-1,.93-2.58-.07-3.54l-7.32-7.03c-1.16,1.28-2.3,2.5-3.42,3.65l7.27,6.99c.48.47,1.11.7,1.73.7Z"/>
        <polygon class="cls-1" points="198.15 450.16 169.15 450.16 168.52 377.51 197.52 377.51 198.15 450.16"/>
        <g>
          <path class="cls-1" d="M83.7,489.83c.68,3.92-2.97,15.18,4.76,17.73,3.57,1.18,19.9,5.92,33.27,6.51,26.41,1.17,42.09-13.16,51.84-16.44,9.66-3.26,26.7-.53,54.48-16.71-2.65-4.62-4.57-13.75-7.22-18.38-22.79-7.74-46.5,4.17-69.63,10.89-23.13,6.72-44,11.71-67.49,16.4Z"/>
          <path class="cls-4" d="M155.45,421.77s-27.77,37.19-36.71,40.23c-8.94,3.04-14.12,10.01-19.49,10.55-5.36.54-20.56,2.86-15.02,15.91,5.54,13.05,45.77,13.59,56.86,8.76,11.09-4.83,36.83-17.52,51.85-19.13,15.02-1.61,27-6.19,27.89-14,.89-7.81-5.72-12.82-5.54-18.54.18-5.72-6.97-14.66-7.15-17.16s-3.04-7.87-9.48-.18c-6.44,7.69-8.76,14.84-25.39,11.09,0,0-1.43-6.79-8.94-13.95-7.51-7.15-8.88-3.58-8.88-3.58Z"/>
          <circle class="cls-1" cx="161.56" cy="442.37" r="2.59"/>
          <g class="cls-10">
            <path class="cls-6" d="M133.58,484.87c15.88-3.91,30.92-10.74,46.78-14.71,10.45-2.61,21.87-4.31,29.66-11.74,1.94-1.85,3.72-4.1,6.28-4.9,3.7-1.15,7.79,1.33,9.58,4.77,1.78,3.44,1.73,7.53,1.19,11.37-3.02,21.7-20.13,39.58-40.18,48.41-20.05,8.83-42.67,9.86-64.54,8.44-10.27-.67-20.77-1.92-29.92-6.61-9.15-4.69-16.81-13.5-17.5-23.76-.24-3.58.41-7.32,2.47-10.26,1.7-2.44,5.47-5.28,8.62-4.21,3.49,1.2,6.62,3.22,10.31,4.18,7.79,2.04,15.96,2.26,23.94,1.4,4.49-.48,8.94-1.31,13.32-2.39Z"/>
          </g>
          <path class="cls-1" d="M147.53,453.95c-.67,0-1.34-.27-1.83-.8l-8.43-9.09c-.94-1.01-.88-2.59.13-3.53,1.01-.94,2.6-.88,3.53.13l8.43,9.09c.94,1.01.88,2.59-.13,3.53-.48.45-1.09.67-1.7.67Z"/>
          <path class="cls-1" d="M138.11,461.23c-.62,0-1.25-.23-1.73-.7l-7.41-7.12c-1-.96-1.03-2.54-.07-3.54.96-1,2.54-1.03,3.53-.07l7.41,7.12c1,.96,1.03,2.54.07,3.54-.49.51-1.15.77-1.8.77Z"/>
        </g>
      </g>
      <g>
        <path class="cls-6" d="M284.96,319.13c-15.93-7.8-12.98-54.55-117.26-63.48-2.99-.26-7.29-24.76,2.58-30.47C303.32,148.08,191.64,7.48,106.49,44.28c-20.87,9.02-51.7,26.71-51.7,91.62,0,28.09-12.36,67.79,27.83,73.05,44.48,5.82-36.77,52.74-36.77,108.51,0,70.26,63.76,71.84,88.8,71.76,95.94-.31,143.63,12.3,194.39-44.01,17.78-19.73-28.44-18.41-44.08-26.07Z"/>
        <g class="cls-5">
          <path class="cls-9" d="M175.89,236.33c15.14,6.33,22.16,14.64,38.42,16.81,7.01.93,15.13,1.1,19.99-4.04,3.23-3.4,4.18-8.48,3.53-13.12-.65-4.64-2.7-8.96-4.86-13.12-10.18-19.69-37.29-57.3-52.51-73.41,0,0,11.9,36.63,9.28,49.6-4.37,21.63-9.45,27.7-16.3,29.25,5.2,2.02-2.71,5.88,2.44,8.04Z"/>
          <path class="cls-9" d="M149.18,117.36c2.8,1.05,5.96,1.99,8.72.84,4.85-2.03,5.19-8.71,4.45-13.92-3.08-21.95-11.11-43.2-23.31-61.71-4.05-6.14-8.95-12.28-15.88-14.73-7.59-2.68-16.22-.28-22.84,4.29-5.82,4.02-13.16,10.77-16.17,17.31-3.17,6.89,2.5,14.24,6.1,19.88,8.84,13.85,20.53,25.87,34.11,35.11,7.73,5.26,16.07,9.63,24.82,12.92Z"/>
        </g>
      </g>
      <path class="cls-4" d="M62.11,184.7l.13-1.19c-.2,2.22-2.02,3.93-4.24,4.02l-54.53,11.09c-4.16.15-6.25-10.93,3.57-17.11,6.84-4.29,16.52-9.2,30.33-21.57,9.74-8.73,14.6-29.45,18.38-36.77,4.34-8.4,31.02,20.17,6.35,61.53Z"/>
      <path class="cls-4" d="M62.11,184.7s2.45,9.84,16.63,18.35c2.88,1.73-.46,6.5-3.7,5.83l-69.02-4.14c-2.11-.44-2.05-3.55.07-3.89l56.01-16.16Z"/>
      <path class="cls-7" d="M4.38,202.01c-.13,0-.26,0-.39,0-2.21,0-3.99-1.8-3.99-4.01,0-2.21,1.8-3.99,4-3.99.12,0,.25,0,.37,0,11.68,0,23.15-1.86,34.1-5.54,7.24-2.43,14.25-5.66,20.84-9.6,1.9-1.14,4.35-.52,5.49,1.38,1.14,1.9.52,4.35-1.38,5.49-7.08,4.24-14.61,7.71-22.4,10.32-11.77,3.95-24.1,5.95-36.65,5.95Z"/>
      <ellipse class="cls-1" cx="98.62" cy="121.71" rx="10.53" ry="19.77"/>
      <ellipse class="cls-1" cx="54.11" cy="151.22" rx="7.74" ry="3.12" transform="translate(-106.4 156.71) rotate(-72.27)"/>
      <ellipse class="cls-2" cx="90.4" cy="119.18" rx="6.85" ry="5.18"/>
      <path class="cls-1" d="M92.56,294.14c-.78,0-1.82-.28-2.89-1.39-5.49-5.69-13.19-34.95-9.49-56.84.23-1.36,1.52-2.28,2.88-2.05,1.36.23,2.28,1.52,2.05,2.88-3.69,21.78,4.71,48.55,7.94,52.32,28.75-3.92,46.32-13.2,69.31-36.52.97-.98,2.55-1,3.54-.03.98.97.99,2.55.02,3.54-23.78,24.12-42.87,34.08-72.94,38.06-.13.02-.27.03-.42.03ZM93.35,289.36h.01-.01Z"/>
      <path class="cls-4" d="M91.61,279.03c-17.4,5.24-24.34,38.28-24.34,38.28l11.43,5.41,9.99-13.73c3.13,2.77,9.83,5.27,15.76.87,16.93-12.55,3.49-35.75-12.84-30.83Z"/>
      <rect class="cls-8" x="81.87" y="291.25" width="12.4" height="6.71" transform="translate(159.1 -4.57) rotate(30)"/>
      <path class="cls-9" d="M293.77,306.04h0c18.29-10.56,12.91-38.24-8-41.25-2.93-.42-54.48-.67-91.75-.8-22.85-.08-37.88,24.13-27.36,44.42,16.12,31.07,48.58,52.31,86.01,52.31,13.64,0,26.63-2.82,38.4-7.91,19.77-8.55,21.36-35.99,2.7-46.76h0Z"/>
      <path class="cls-6" d="M293.77,295.21h0c18.29-10.56,12.91-38.24-8-41.25-2.93-.42-54.48-.67-91.75-.8-22.85-.08-37.88,24.13-27.36,44.42,16.12,31.07,48.58,52.31,86.01,52.31,13.64,0,26.63-2.82,38.4-7.91,19.77-8.55,21.36-35.99,2.7-46.76h0Z"/>
      <g>
        <path class="cls-4" d="M243,93.05c4.5.38,8.83-2.37,10.27-6.85,1.67-5.21-1.21-10.79-6.42-12.46-4.4-1.41-9.06.43-11.4,4.18-26.62-45.4-67.2-49.97-93.67-47.09L90.76,3.95c-4.88-2.57-10.41,1.99-8.79,7.29,25.52,83.64,69.13,120.74,91.66,134.99.21.13.43.23.64.34l25.72,47.98c4.27,7.96,14.42,9.86,20.23,3.78,16.97-17.74,43.34-55.61,22.78-105.28Z"/>
        <path class="cls-1" d="M141.22,32.64l34.33,103.62c1.85,5.6-4.28,10.34-9.19,7.1-22.06-14.56-64.55-52.15-88.22-135.51-1.5-5.28,4.06-9.7,8.85-7.05l51.3,28.32c1.38.76,2.43,2.03,2.93,3.53Z"/>
        <circle class="cls-1" cx="243.43" cy="83.08" r="10.35"/>
      </g>
      <path class="cls-1" d="M104.15,99.13s-11.03-5.09-16.9-8.12c-6.08-3.14-3.64-8.88,1.98-7.78,5.55,1.09,18.8,4.41,18.57,4.49,4.06,1.3,6.53,4.9,5.52,8.05h0c-1.01,3.15-5.11,4.66-9.17,3.36Z"/>
      <ellipse class="cls-2" cx="14.43" cy="185.36" rx="7.4" ry="2.33" transform="translate(-74.12 21.88) rotate(-23.99)"/>
    </g>
  </g>
</svg>