<?xml version="1.0" encoding="UTF-8"?>
<svg id="Layer_2" xmlns="http://www.w3.org/2000/svg" xmlns:xlink="http://www.w3.org/1999/xlink" viewBox="0 0 351.47 526.06">
  <defs>
    <style>
      .cls-1 {
        fill: #303b70;
      }

      .cls-2 {
        fill: #e8f6f9;
      }

      .cls-3 {
        fill: none;
      }

      .cls-4 {
        fill: #f58431;
      }

      .cls-5 {
        clip-path: url(#clippath-1);
      }

      .cls-6 {
        fill: #60ccf2;
      }

      .cls-7 {
        fill: #b54e36;
      }

      .cls-8 {
        fill: #083551;
      }

      .cls-9 {
        fill: #0091d4;
      }

      .cls-10 {
        clip-path: url(#clippath-2);
      }

      .cls-11 {
        clip-path: url(#clippath);
      }
    </style>
    <clipPath id="clippath">
      <path class="cls-6" d="M30.19,247.29h0c-7.7-19.67,13.78-37.93,32-27.24,2.56,1.5,42.98,33.48,72.18,56.64,17.9,14.2,14.54,42.5-6.34,51.78-31.99,14.22-70.6,10.54-99.84-12.81-10.66-8.52-19.04-18.82-25.06-30.15-10.11-19.02,5.77-41.45,27.07-38.22h0Z"/>
    </clipPath>
    <clipPath id="clippath-1">
      <path class="cls-3" d="M192.19,410.3s-13.11,44.52-20.43,50.48-9.76,14.3-14.61,16.67c-4.84,2.37-18.28,9.83-8.55,20.14s47.64-3.17,56.36-11.55c8.72-8.38,28.44-29.23,41.96-35.96,13.52-6.73,23.16-15.19,21.28-22.83-1.88-7.63-9.82-10.03-11.64-15.45-1.82-5.43-11.64-11.32-12.67-13.61s-5.58-6.32-8.95,3.13c-3.36,9.45-3.06,16.96-19.95,19.22,0,0-3.7-5.87-13.23-9.97-9.53-4.09-9.57-.27-9.57-.27Z"/>
    </clipPath>
    <clipPath id="clippath-2">
      <path class="cls-6" d="M303.39,319.13c-15.93-7.8-12.98-54.55-117.26-63.48-2.99-.26-7.29-24.76,2.58-30.47C321.74,148.08,210.07,7.48,124.91,44.28c-20.87,9.02-51.7,26.71-51.7,91.62,0,28.09-12.36,67.79,27.83,73.05,44.48,5.82-36.77,52.74-36.77,108.51,0,70.26,63.76,71.84,88.8,71.76,95.94-.31,143.63,12.3,194.39-44.01,17.78-19.73-28.44-18.41-44.08-26.07Z"/>
    </clipPath>
  </defs>
  <g id="Layer_2-2" data-name="Layer_2">
    <g>
      <g>
        <path class="cls-6" d="M30.19,247.29h0c-7.7-19.67,13.78-37.93,32-27.24,2.56,1.5,42.98,33.48,72.18,56.64,17.9,14.2,14.54,42.5-6.34,51.78-31.99,14.22-70.6,10.54-99.84-12.81-10.66-8.52-19.04-18.82-25.06-30.15-10.11-19.02,5.77-41.45,27.07-38.22h0Z"/>
        <g class="cls-11">
          <ellipse class="cls-9" cx="96.16" cy="305.17" rx="65.21" ry="41.87" transform="translate(-223.8 303.84) rotate(-72.27)"/>
        </g>
      </g>
      <g>
        <path class="cls-3" d="M207.88,423.82c.83,2.47,2.92,4.31,5.14,6.3,2.36,2.12,4.86,4.42,6.1,7.83,4.06,3.48,8.97,11.22,13.01,14.59-20.42,24.82-37.34,28.19-45.27,34.6-6.25,5.06-13.57,17.71-28.5,26.86.27.02.54.03.83.02,3.76-.14,20.71-1.37,33.45-5.46.98-.31,1.94-.65,2.87-.99,23.05-8.55,32.34-26.23,40.02-32.45,7.93-6.41,24.85-9.78,45.27-34.6-4.04-3.37-8.95-11.11-13.01-14.59-2.41-6.61-9.53-9.03-11.24-14.13-1.82-5.43-11.64-11.32-12.67-13.61-.64-1.41-2.61-3.47-4.81-2.66-1.38.51-2.85,2.15-4.14,5.78-2.73,7.66-3.04,14.05-12.07,17.4-2.11.78-4.69,1.4-7.88,1.82,0,0-3.7-5.87-13.23-9.97-3.91-1.68-6.22-2.03-7.59-1.85.47.49.83,1.03,1.05,1.5,1.04,2.28,10.85,8.18,12.67,13.61Z"/>
        <path class="cls-1" d="M166.31,432.56c7.79-1.04,11.92-3.2,14.44-6.15.92-2.71,1.77-5.29,2.51-7.61l-19.31-50.75-27.19,10.08,17.04,44.79c8.98,4.07,12.51,9.64,12.51,9.64Z"/>
        <path class="cls-1" d="M232.13,452.55c-4.04-3.37-8.95-11.11-13.01-14.59.15.42.29.86.4,1.32,1.88,7.63-7.76,16.1-21.28,22.83-13.52,6.73-33.25,27.58-41.96,35.96-1.44,1.38-3.69,2.91-6.46,4.44,1.32,4.56,2.95,11.11,8.54,11.5,14.93-9.14,22.25-21.8,28.5-26.86,7.93-6.41,24.85-9.78,45.27-34.6Z"/>
        <path class="cls-1" d="M144.36,505.22c-14.21,6.41-35.45,11.56-43.48,5.26-.33.2-.65.4-.98.61,2,3.43,2.49,15.26,10.63,14.97,3.76-.14,20.71-1.37,33.45-5.46,2.66-.86,5.14-1.84,7.48-2.91-4.28-3.19-6.07-8.91-7.09-12.46Z"/>
        <path class="cls-4" d="M99.23,502.63c3.69-.09,7.33.71,11.12.34,1.05-.1,2.1-.24,3.14-.41,9.19-5.88,18.02-11.77,26.91-18,2.1-4.75,6.84-8.94,14.12-12.5.99-.48,2.6-2.86,4.03-4.95,2.26-3.32,5.07-7.44,9.41-10.97.26-.23,2.18-2.17,6.28-12.09l-10.85,4.02-9.57-25.15c-.24-.11-.47-.22-.72-.33-9.53-4.09-9.57-.26-9.57-.26,0,0-3.21,10.91-7.35,22.65.1.04.2.06.29.11l11.07,5.59c1.23.62,1.73,2.13,1.1,3.36-.3.59-.79,1-1.36,1.22-.63.23-1.35.21-2-.11l-10.8-5.46c-.87,2.37-1.77,4.72-2.68,6.97l9.31,4.05c1.27.55,1.85,2.02,1.29,3.29-.28.65-.81,1.12-1.42,1.35s-1.25.22-1.87-.05l-9.25-4.03c-2.43,5.55-4.82,9.94-6.78,11.54-7.33,5.96-9.76,14.3-14.61,16.67-3.83,1.87-13.04,6.94-11.89,14.08.8-.55,1.69-.91,2.65-.93ZM155.5,437.08c1.34-.5,2.83.19,3.33,1.53s-.19,2.83-1.53,3.33-2.83-.19-3.33-1.53.19-2.83,1.53-3.33Z"/>
        <path class="cls-4" d="M192.19,410.3s-2.31,7.85-5.54,17.4l3.92,10.29-8.77,3.25c-3.48,9.09-7.2,17.23-10.05,19.54-.75.61-1.44,1.25-2.1,1.9,11.54-9.3,23.18-18.6,36.5-22.7.45-.73.88-1.48,1.26-2.27,1.18-2.41,2.06-5.14,4.19-6.78.44-.34.92-.61,1.42-.82-2.21-1.99-4.31-3.83-5.14-6.3-1.82-5.43-11.64-11.32-12.67-13.61-.21-.47-.58-1.01-1.05-1.5-.3.04-.55.1-.77.18-1.2.45-1.21,1.4-1.21,1.4Z"/>
        <path class="cls-4" d="M174.23,444.05c1.38-3.34,3.01-7.59,4.91-12.98.55-1.57,1.09-3.13,1.61-4.65-2.52,2.95-6.65,5.11-14.44,6.15,0,0-3.53-5.56-12.51-9.64l9.57,25.15,10.85-4.02Z"/>
        <path class="cls-4" d="M186.65,427.7c-1.47,4.36-3.13,9.06-4.85,13.54l8.77-3.25-3.92-10.29Z"/>
        <path class="cls-4" d="M140.39,484.56c-8.89,6.23-17.72,12.12-26.91,18,6.89-1.09,13.56-3.5,19.79-6.6,2.07-1.03,4.09-2.14,6.08-3.32-.31-1.81-.24-3.43,0-4.76.21-1.13.55-2.24,1.03-3.32Z"/>
        <path class="cls-4" d="M145.29,488.85c13.38-9.15,25.02-20.65,38.4-29.81,8.17-5.59,17.36-10.75,22.46-19.05-13.32,4.1-24.96,13.41-36.5,22.7-5.74,5.71-8.16,12.64-12.51,14.76-3.33,1.63-10.74,5.67-11.86,11.4Z"/>
        <path class="cls-1" d="M157.3,441.94c1.34-.5,2.03-1.99,1.53-3.33s-1.99-2.03-3.33-1.53-2.03,1.99-1.53,3.33,1.99,2.03,3.33,1.53Z"/>
        <path class="cls-6" d="M219.12,437.96c-1.24-3.41-3.74-5.71-6.1-7.83-.5.21-.97.48-1.42.82-2.12,1.64-3.01,4.36-4.19,6.78-.38.79-.81,1.53-1.26,2.27,4.1-1.26,8.36-2.03,12.82-2.16.05.04.1.09.15.13Z"/>
        <path class="cls-6" d="M110.35,502.97c-3.79.37-7.43-.43-11.12-.34-.96.02-1.85.38-2.65.93.3,1.88,1.31,3.91,3.34,6.06.29.31.61.59.95.86,4.3-2.66,8.49-5.29,12.61-7.92-1.04.17-2.09.3-3.14.41Z"/>
        <path class="cls-6" d="M144.36,505.22c-.05-.17-.09-.33-.14-.48-.98-3.42-3.46-7.87-3.47-7.91-.74-1.48-1.16-2.88-1.39-4.19-1.99,1.18-4.01,2.29-6.08,3.32-6.24,3.11-12.9,5.51-19.79,6.6-4.12,2.63-8.31,5.26-12.61,7.92,8.03,6.3,29.27,1.15,43.48-5.26Z"/>
        <path class="cls-6" d="M198.24,462.1c13.52-6.73,23.16-15.19,21.28-22.83-.11-.46-.25-.9-.4-1.32-.05-.04-.1-.09-.15-.13-4.46.12-8.72.9-12.82,2.16-5.1,8.31-14.3,13.46-22.46,19.05-13.38,9.16-25.02,20.66-38.4,29.81-.51,2.59.27,5.53,3.31,8.74.29.31.61.59.95.86-.33.2-.65.4-.98.61.46.79.84,2.02,1.25,3.45,2.77-1.53,5.02-3.06,6.46-4.44,8.72-8.38,28.44-29.23,41.96-35.96Z"/>
        <path class="cls-1" d="M133.1,446.2c-.62,1.23-.13,2.74,1.1,3.36l.27.13c.58-1.57,1.14-3.15,1.69-4.71-1.17-.42-2.49.08-3.06,1.22Z"/>
        <path class="cls-1" d="M147.27,455.26c.57-.21,1.07-.63,1.36-1.22.62-1.23.13-2.74-1.1-3.36l-11.07-5.59c-.1-.05-.2-.08-.29-.11-.55,1.56-1.12,3.14-1.69,4.71l10.8,5.46c.65.33,1.37.35,2,.11Z"/>
        <path class="cls-1" d="M131.68,456.61c-1.27-.55-2.74.03-3.29,1.29-.55,1.27.03,2.74,1.29,3.29l.18.08c.64-1.47,1.29-3.01,1.93-4.61l-.12-.05Z"/>
        <path class="cls-1" d="M140.97,465.35c.62-.23,1.14-.7,1.42-1.35.55-1.27-.03-2.74-1.29-3.29l-9.31-4.05c-.64,1.6-1.29,3.14-1.93,4.61l9.25,4.03c.62.27,1.28.27,1.87.05Z"/>
        <polygon class="cls-1" points="242.09 422.07 214.9 432.15 189.05 364.26 216.24 354.17 242.09 422.07"/>
        <g>
          <path class="cls-1" d="M148.57,499.06c2,3.43,2.49,15.26,10.63,14.97,3.76-.14,20.71-1.37,33.45-5.46,25.16-8.09,34.89-26.97,42.89-33.44,7.93-6.41,24.85-9.78,45.27-34.6-4.09-3.42-9.07-11.31-13.16-14.72-24.06.67-42.15,20.08-61.5,34.42-19.35,14.35-37.18,26.28-57.58,38.84Z"/>
          <path class="cls-4" d="M192.19,410.3s-13.11,44.52-20.43,50.48-9.76,14.3-14.61,16.67c-4.84,2.37-18.28,9.83-8.55,20.14s47.64-3.17,56.36-11.55c8.72-8.38,28.44-29.23,41.96-35.96,13.52-6.73,23.16-15.19,21.28-22.83-1.88-7.63-9.82-10.03-11.64-15.45-1.82-5.43-11.64-11.32-12.67-13.61s-5.58-6.32-8.95,3.13c-3.36,9.45-3.06,16.96-19.95,19.22,0,0-3.7-5.87-13.23-9.97-9.53-4.09-9.57-.27-9.57-.27Z"/>
          <circle class="cls-1" cx="205.07" cy="427.48" r="2.59"/>
          <g class="cls-5">
            <path class="cls-6" d="M193.61,477.06c13.53-9.19,25.26-20.82,38.75-30.05,8.89-6.08,19.01-11.64,23.73-21.32,1.18-2.41,2.06-5.14,4.19-6.78,3.07-2.37,7.77-1.46,10.64,1.14,2.87,2.6,4.24,6.46,5.07,10.25,4.71,21.4-5.12,44.11-20.84,59.36-15.73,15.25-36.58,24.08-57.58,30.35-9.86,2.95-20.14,5.42-30.35,4.2-10.22-1.22-20.45-6.81-24.67-16.2-1.47-3.27-2.16-7.01-1.25-10.48.75-2.88,3.3-6.85,6.62-6.94,3.69-.09,7.33.71,11.12.34,8.01-.79,15.75-3.43,22.93-7.01,4.04-2.01,7.93-4.33,11.66-6.87Z"/>
          </g>
          <path class="cls-1" d="M195.94,443.23c-.63.23-1.35.21-2-.11l-11.07-5.59c-1.23-.62-1.73-2.13-1.1-3.36.62-1.23,2.13-1.73,3.36-1.1l11.07,5.59c1.23.62,1.73,2.13,1.1,3.36-.3.59-.79,1-1.36,1.22Z"/>
          <path class="cls-1" d="M189.65,453.32c-.58.22-1.25.22-1.87-.05l-9.43-4.1c-1.27-.55-1.85-2.02-1.29-3.29.55-1.27,2.02-1.85,3.29-1.29l9.43,4.1c1.27.55,1.85,2.02,1.29,3.29-.28.65-.81,1.12-1.42,1.35Z"/>
        </g>
      </g>
      <g>
        <path class="cls-6" d="M303.39,319.13c-15.93-7.8-12.98-54.55-117.26-63.48-2.99-.26-7.29-24.76,2.58-30.47C321.74,148.08,210.07,7.48,124.91,44.28c-20.87,9.02-51.7,26.71-51.7,91.62,0,28.09-12.36,67.79,27.83,73.05,44.48,5.82-36.77,52.74-36.77,108.51,0,70.26,63.76,71.84,88.8,71.76,95.94-.31,143.63,12.3,194.39-44.01,17.78-19.73-28.44-18.41-44.08-26.07Z"/>
        <g class="cls-10">
          <path class="cls-9" d="M194.31,236.33c15.14,6.33,22.16,14.64,38.42,16.81,7.01.93,15.13,1.1,19.99-4.04,3.23-3.4,4.18-8.48,3.53-13.12s-2.7-8.96-4.86-13.12c-10.18-19.69-37.29-57.3-52.51-73.41,0,0,11.9,36.63,9.28,49.6-4.37,21.63-9.45,27.7-16.3,29.25,5.2,2.02-2.71,5.88,2.44,8.04Z"/>
          <path class="cls-9" d="M167.6,117.36c2.8,1.05,5.96,1.99,8.72.84,4.85-2.03,5.19-8.71,4.45-13.92-3.08-21.95-11.11-43.2-23.31-61.71-4.05-6.14-8.95-12.28-15.88-14.73-7.59-2.68-16.22-.28-22.84,4.29-5.82,4.02-13.16,10.77-16.17,17.31-3.17,6.89,2.5,14.24,6.1,19.88,8.84,13.85,20.53,25.87,34.11,35.11,7.73,5.26,16.07,9.63,24.82,12.92Z"/>
        </g>
      </g>
      <path class="cls-4" d="M80.54,184.7l.13-1.19c-.2,2.22-2.02,3.93-4.24,4.02l-54.53,11.09c-4.16.15-6.25-10.93,3.57-17.11,6.84-4.29,16.52-9.2,30.33-21.57,9.74-8.73,14.6-29.45,18.38-36.77,4.34-8.4,31.02,20.17,6.35,61.53Z"/>
      <path class="cls-4" d="M80.54,184.7s2.45,9.84,16.63,18.35c2.88,1.73-.46,6.5-3.7,5.83l-63.19,3.95c-2.11-.44-2.05-3.55.07-3.89l50.18-24.25Z"/>
      <path class="cls-7" d="M22.81,202.02c-.13,0-.26,0-.39,0-2.21,0-3.99-1.8-3.99-4.01,0-2.21,1.8-3.99,4-3.99.12,0,.25,0,.37,0,11.68,0,23.15-1.86,34.1-5.54,7.24-2.43,14.25-5.66,20.84-9.6,1.9-1.14,4.35-.52,5.49,1.38,1.13,1.9.52,4.35-1.38,5.49-7.08,4.24-14.62,7.71-22.4,10.32-11.77,3.95-24.1,5.95-36.64,5.95Z"/>
      <path class="cls-7" d="M31.66,212.22c-1.9,0-3.58-1.36-3.93-3.29-.39-2.17,1.05-4.25,3.22-4.65,7.53-1.36,16.35-3.65,29.75-11.08,6.23-3.45,9.93-6.81,13.85-10.36.86-.78,1.72-1.55,2.6-2.33,1.66-1.46,4.19-1.3,5.65.36,1.46,1.66,1.3,4.19-.36,5.65-.85.75-1.68,1.5-2.51,2.26-4.08,3.7-8.3,7.52-15.34,11.42-14.42,7.99-24,10.47-32.21,11.95-.24.04-.48.07-.72.07Z"/>
      <ellipse class="cls-1" cx="117.04" cy="121.71" rx="10.53" ry="19.77"/>
      <ellipse class="cls-1" cx="72.54" cy="151.22" rx="7.74" ry="3.12" transform="translate(-93.59 174.26) rotate(-72.27)"/>
      <ellipse class="cls-2" cx="109.68" cy="119.09" rx="7.78" ry="7.01"/>
      <path class="cls-1" d="M110.99,294.14c-.78,0-1.82-.29-2.89-1.4-5.49-5.7-13.19-34.96-9.49-56.84.23-1.36,1.52-2.28,2.88-2.05,1.36.23,2.28,1.52,2.05,2.88-3.69,21.78,4.71,48.55,7.94,52.32,28.75-3.92,46.32-13.2,69.31-36.52.97-.98,2.55-1,3.54-.03.98.97.99,2.55.02,3.54-23.78,24.12-42.87,34.08-72.94,38.06-.13.02-.27.03-.42.03ZM111.78,289.36h.01-.01Z"/>
      <path class="cls-4" d="M110.03,279.03c-17.4,5.24-24.34,38.28-24.34,38.28l11.43,5.41,9.99-13.73c3.13,2.77,9.83,5.27,15.76.87,16.93-12.55,3.49-35.75-12.84-30.83Z"/>
      <rect class="cls-8" x="100.29" y="291.25" width="12.4" height="6.71" transform="translate(161.57 -13.78) rotate(30)"/>
      <path class="cls-9" d="M311.66,239.1h0c7.91-19.58-13.37-38.08-31.7-27.58-2.57,1.47-43.34,33.01-72.79,55.86-18.06,14.01-15,42.34,5.79,51.85,31.83,14.56,70.49,11.31,99.98-11.74,10.75-8.4,19.24-18.62,25.39-29.88,10.31-18.91-5.33-41.51-26.66-38.51h0Z"/>
      <path class="cls-6" d="M304.99,230.57h0c7.91-19.58-13.37-38.08-31.7-27.58-2.57,1.47-43.34,33.01-72.79,55.86-18.06,14.01-15,42.34,5.79,51.85,31.83,14.56,70.49,11.31,99.98-11.74,10.75-8.4,19.24-18.62,25.39-29.88,10.31-18.91-5.33-41.51-26.66-38.51h0Z"/>
      <g>
        <path class="cls-4" d="M261.43,93.05c4.5.38,8.83-2.37,10.27-6.85,1.67-5.21-1.21-10.79-6.42-12.46-4.4-1.41-9.06.43-11.4,4.18-26.62-45.4-67.2-49.97-93.67-47.09L109.18,3.95c-4.88-2.57-10.41,1.99-8.79,7.29,25.52,83.64,69.13,120.74,91.66,134.99.21.13.43.23.64.34l25.72,47.98c4.27,7.96,14.42,9.86,20.23,3.78,16.97-17.74,43.34-55.61,22.78-105.28Z"/>
        <path class="cls-1" d="M159.64,32.64l34.33,103.62c1.85,5.6-4.28,10.34-9.19,7.1-22.06-14.56-64.55-52.15-88.22-135.51-1.5-5.28,4.06-9.7,8.85-7.05l51.3,28.32c1.38.76,2.43,2.03,2.93,3.53Z"/>
        <circle class="cls-1" cx="261.86" cy="83.08" r="10.35"/>
      </g>
      <path class="cls-1" d="M126.97,88.25s-11.03-5.09-16.9-8.12c-6.08-3.14-3.64-8.88,1.98-7.78,5.55,1.09,18.8,4.41,18.57,4.49,4.06,1.3,6.53,4.9,5.52,8.05h0c-1.01,3.15-5.11,4.66-9.17,3.36Z"/>
      <ellipse class="cls-2" cx="32.85" cy="185.36" rx="7.4" ry="2.33" transform="translate(-72.53 29.37) rotate(-23.99)"/>
    </g>
  </g>
</svg>