<?xml version="1.0" encoding="UTF-8"?>
<svg id="Layer_2" xmlns="http://www.w3.org/2000/svg" xmlns:xlink="http://www.w3.org/1999/xlink" viewBox="0 0 352.05 514.86">
  <defs>
    <style>
      .cls-1 {
        fill: #303b70;
      }

      .cls-2 {
        fill: #e8f6f9;
      }

      .cls-3 {
        fill: none;
      }

      .cls-4 {
        fill: #f58431;
      }

      .cls-5 {
        clip-path: url(#clippath-1);
      }

      .cls-6 {
        fill: #60ccf2;
      }

      .cls-7 {
        fill: #b54e36;
      }

      .cls-8 {
        fill: #083551;
      }

      .cls-9 {
        fill: #0091d4;
      }

      .cls-10 {
        clip-path: url(#clippath-2);
      }

      .cls-11 {
        clip-path: url(#clippath);
      }
    </style>
    <clipPath id="clippath">
      <path class="cls-6" d="M22.09,265.49h0c-13.32-16.39,1.58-40.33,22.18-35.69,2.89.65,51.14,18.8,86,31.97,21.38,8.08,26.79,36.05,9.72,51.25-26.14,23.28-64.04,31.54-99,18.2-12.75-4.87-23.87-12.13-33.05-21.09-15.42-15.04-7.12-41.24,14.15-44.65h0Z"/>
    </clipPath>
    <clipPath id="clippath-1">
      <path class="cls-3" d="M176.23,413.53s-20.98,41.4-29.27,45.93c-8.29,4.53-12.2,12.29-17.39,13.74-5.19,1.45-19.77,6.35-12.07,18.25,7.7,11.91,47.42,5.54,57.52-1.12,10.09-6.66,33.28-23.58,47.8-27.74,14.52-4.16,25.54-10.73,25.08-18.58s-7.83-11.64-8.64-17.31c-.81-5.67-9.38-13.25-9.99-15.68s-4.34-7.23-9.37,1.45c-5.02,8.68-6.09,16.12-23.11,15.28,0,0-2.57-6.45-11.2-12.21-8.62-5.76-9.36-2-9.36-2Z"/>
    </clipPath>
    <clipPath id="clippath-2">
      <path class="cls-6" d="M303.97,319.13c-15.93-7.8-12.98-54.55-117.26-63.48-2.99-.26-7.29-24.76,2.58-30.47C322.33,148.08,210.65,7.48,125.49,44.28c-20.87,9.02-51.7,26.71-51.7,91.62,0,28.09-12.36,67.79,27.83,73.05,44.48,5.82-36.77,52.74-36.77,108.51,0,70.26,63.76,71.84,88.8,71.76,95.94-.31,143.63,12.3,194.39-44.01,17.78-19.73-28.44-18.41-44.08-26.07Z"/>
    </clipPath>
  </defs>
  <g id="Layer_2-2" data-name="Layer_2">
    <g>
      <g>
        <path class="cls-6" d="M22.09,265.49h0c-13.32-16.39,1.58-40.33,22.18-35.69,2.89.65,51.14,18.8,86,31.97,21.38,8.08,26.79,36.05,9.72,51.25-26.14,23.28-64.04,31.54-99,18.2-12.75-4.87-23.87-12.13-33.05-21.09-15.42-15.04-7.12-41.24,14.15-44.65h0Z"/>
        <g class="cls-11">
          <ellipse class="cls-9" cx="102.55" cy="300.54" rx="65.21" ry="41.87" transform="translate(-214.29 279.29) rotate(-67.32)"/>
        </g>
      </g>
      <g>
        <path class="cls-3" d="M191.79,427.63c.47,2.56,2.27,4.68,4.18,6.97,2.03,2.44,4.17,5.07,4.92,8.63,3.52,4.02,7.27,12.39,10.78,16.3-23.77,21.64-41,22.55-49.76,27.76-6.91,4.11-15.97,15.59-32.05,22.5.26.06.54.11.82.14,3.74.4,20.69,1.61,33.89-.61,1.01-.17,2.01-.36,2.98-.57,24.04-5.16,35.76-21.33,44.26-26.38,8.76-5.21,25.99-6.12,49.76-27.76-3.52-3.92-7.26-12.28-10.78-16.3-1.44-6.89-8.13-10.3-9.1-15.6-1.03-5.63-9.89-12.87-10.59-15.28-.43-1.48-2.08-3.81-4.38-3.32-1.44.31-3.12,1.72-4.93,5.13-3.8,7.19-5.02,13.47-14.44,15.49-2.2.47-4.84.71-8.06.68,0,0-2.82-6.34-11.67-11.76-3.63-2.22-5.87-2.9-7.25-2.92.39.55.68,1.14.82,1.63.7,2.41,9.57,9.65,10.59,15.28Z"/>
        <path class="cls-1" d="M142.46,433.65c7.66,1.73,12.29,1.14,15.68-.75,1.8-2.22,3.49-4.34,5-6.26l-.46-54.29h-29l.41,47.92c7,6.94,8.38,13.38,8.38,13.38Z"/>
        <path class="cls-1" d="M211.67,459.53c-3.52-3.92-7.26-12.28-10.78-16.3.09.44.17.89.21,1.37.76,7.82-9.99,14.82-24.33,19.54-14.35,4.72-36.86,22.53-46.68,29.58-1.62,1.16-4.06,2.35-7.03,3.47.65,4.7,1.33,11.42,6.81,12.61,16.09-6.91,25.14-18.39,32.05-22.5,8.76-5.21,25.99-6.12,49.76-27.76Z"/>
        <path class="cls-6" d="M190.1,457.07c.02-3.63-1.52-6.65-3-9.46-.54.02-1.08.11-1.61.27-2.56.8-4.34,3.05-6.28,4.9-.63.6-1.3,1.16-1.97,1.69,4.28.24,8.54,1,12.77,2.43.03.05.06.12.09.17Z"/>
        <g>
          <path class="cls-1" d="M111.56,438.93c-.83,1.1-.61,2.67.5,3.5l.24.18c.84-1.44,1.68-2.9,2.5-4.34-1.08-.62-2.47-.36-3.23.66Z"/>
          <path class="cls-1" d="M108.32,448.93c-1.15-.77-2.7-.45-3.47.7-.77,1.15-.45,2.7.7,3.47l.16.11c.89-1.33,1.8-2.74,2.72-4.2l-.11-.07Z"/>
          <g>
            <path class="cls-1" d="M112.25,499.02c-15.12,3.8-36.93,5.14-43.73-2.48-.36.14-.71.28-1.07.42,1.37,3.73-.23,15.46,7.83,16.6,3.72.53,20.63,2.3,33.89.51,2.77-.37,5.39-.9,7.87-1.55-3.65-3.9-4.41-9.83-4.79-13.52Z"/>
            <path class="cls-4" d="M146.65,431.36s-2.49-6.1-10.62-11.69c-.22-.15-.43-.3-.65-.45-8.66-5.71-9.37-1.94-9.37-1.94,0,0-5.08,10.17-11.22,21,.09.05.18.1.27.16l9.91,7.45c1.1.83,1.33,2.4.5,3.5-.39.52-.96.85-1.55.96-.66.12-1.37-.03-1.95-.46l-9.67-7.27c-1.28,2.18-2.58,4.34-3.86,6.39l8.45,5.63c1.15.77,1.46,2.32.7,3.47-.39.59-.99.96-1.64,1.07s-1.27,0-1.83-.38l-8.39-5.59c-3.37,5.03-6.49,8.94-8.71,10.16-8.26,4.58-12.13,12.36-17.31,13.84-4.1,1.17-14.05,4.54-14.19,11.77.89-.4,1.83-.59,2.77-.45,3.65.56,7.09,1.99,10.89,2.29,1.05.08,2.11.13,3.16.15,6.98.14,13.96-1.06,20.65-3.01,2.22-.65,4.41-1.39,6.57-2.2.01-1.83.37-3.42.84-4.68.4-1.08.94-2.11,1.6-3.08,2.91-4.3,8.3-7.6,16.1-9.82,1.06-.3,3.07-2.35,4.84-4.16,2.81-2.87,6.3-6.43,11.19-9.14.3-.18,2.52-1.75,8.31-10.8,1.95-3.05,4.3-6.94,7.12-11.92.82-1.45,1.62-2.89,2.4-4.3-3,2.46-7.45,3.86-15.3,3.51ZM136.13,439c-1.41.25-2.76-.68-3.01-2.09s.68-2.76,2.09-3.01,2.76.68,3.01,2.09-.68,2.76-2.09,3.01Z"/>
            <path class="cls-1" d="M136.13,439c1.41-.25,2.35-1.6,2.09-3.01s-1.6-2.35-3.01-2.09-2.35,1.6-2.09,3.01,1.6,2.35,3.01,2.09Z"/>
            <path class="cls-6" d="M110.17,490.12c-.47-1.58-.64-3.04-.63-4.37-2.16.81-4.35,1.55-6.57,2.2-6.69,1.96-13.67,3.15-20.65,3.01-1.05-.02-2.11-.07-3.16-.15-3.8-.3-7.24-1.73-10.89-2.29-.95-.14-1.88.05-2.77.45-.03,1.91.6,4.08,2.23,6.56.23.35.5.69.78,1.01,6.8,7.61,28.61,6.28,43.73,2.48-.02-.17-.04-.34-.05-.5-.36-3.54-2.02-8.36-2.03-8.4Z"/>
            <path class="cls-1" d="M123.91,450.35c.6-.11,1.16-.43,1.55-.96.83-1.1.61-2.67-.5-3.5l-9.91-7.45c-.09-.06-.18-.11-.27-.16-.82,1.44-1.65,2.9-2.5,4.34l9.67,7.27c.58.44,1.28.58,1.95.46Z"/>
            <path class="cls-1" d="M115.94,459.17c.65-.12,1.25-.49,1.64-1.07.77-1.15.45-2.7-.7-3.47l-8.45-5.63c-.92,1.46-1.82,2.87-2.72,4.2l8.39,5.59c.56.37,1.21.49,1.83.38Z"/>
          </g>
        </g>
        <polygon class="cls-1" points="217.16 450.16 188.16 450.16 187.52 377.51 216.52 377.51 217.16 450.16"/>
        <g>
          <path class="cls-1" d="M117.21,492.88c1.34,3.74-.32,15.46,7.73,16.65,3.72.55,20.62,2.42,33.89.71,26.22-3.38,39.21-20.19,48.25-25.09,8.96-4.87,26.21-5.1,50.8-25.8-3.4-4.1-6.86-12.77-10.26-16.87-23.78-3.71-45.1,12.09-66.73,22.68-21.64,10.59-41.34,19.09-63.68,27.73Z"/>
          <path class="cls-4" d="M176.23,413.53s-20.98,41.4-29.27,45.93c-8.29,4.53-12.2,12.29-17.39,13.74-5.19,1.45-19.77,6.35-12.07,18.25s47.42,5.54,57.52-1.12c10.09-6.66,33.28-23.58,47.8-27.74,14.52-4.16,25.54-10.73,25.08-18.58-.46-7.85-7.83-11.64-8.64-17.31-.81-5.67-9.38-13.25-9.99-15.68s-4.34-7.23-9.37,1.45c-5.02,8.68-6.09,16.12-23.11,15.28,0,0-2.57-6.45-11.2-12.21-8.62-5.76-9.36-2-9.36-2Z"/>
          <circle class="cls-1" cx="185.78" cy="432.77" r="2.59"/>
          <g class="cls-5">
            <path class="cls-6" d="M165.5,479.44c14.97-6.58,28.62-15.88,43.57-22.51,9.84-4.37,20.81-8,27.21-16.66,1.6-2.16,2.96-4.68,5.35-5.9,3.45-1.77,7.91-.03,10.25,3.06,2.35,3.08,3,7.13,3.13,11,.74,21.9-13.04,42.45-31.28,54.59-18.24,12.14-40.35,17.03-62.13,19.39-10.23,1.11-20.79,1.67-30.61-1.38-9.82-3.05-18.88-10.41-21.32-20.41-.85-3.49-.85-7.29.67-10.54,1.26-2.69,4.49-6.14,7.77-5.62,3.65.58,7.07,2.03,10.87,2.35,8.02.68,16.11-.52,23.82-2.73,4.34-1.24,8.58-2.82,12.71-4.63Z"/>
          </g>
          <path class="cls-1" d="M173.94,446.59c-.66.12-1.37-.03-1.94-.47l-9.87-7.51c-1.1-.84-1.31-2.4-.48-3.5.84-1.1,2.41-1.31,3.5-.48l9.87,7.51c1.1.84,1.31,2.4.48,3.5-.4.52-.96.84-1.56.95Z"/>
          <path class="cls-1" d="M165.92,455.38c-.61.11-1.27-.01-1.83-.39l-8.52-5.75c-1.15-.77-1.45-2.33-.68-3.47.77-1.15,2.33-1.45,3.47-.68l8.52,5.75c1.15.77,1.45,2.33.68,3.47-.4.59-1,.95-1.64,1.07Z"/>
        </g>
      </g>
      <g>
        <path class="cls-6" d="M303.97,319.13c-15.93-7.8-12.98-54.55-117.26-63.48-2.99-.26-7.29-24.76,2.58-30.47C322.33,148.08,210.65,7.48,125.49,44.28c-20.87,9.02-51.7,26.71-51.7,91.62,0,28.09-12.36,67.79,27.83,73.05,44.48,5.82-36.77,52.74-36.77,108.51,0,70.26,63.76,71.84,88.8,71.76,95.94-.31,143.63,12.3,194.39-44.01,17.78-19.73-28.44-18.41-44.08-26.07Z"/>
        <g class="cls-10">
          <path class="cls-9" d="M194.89,236.33c15.14,6.33,22.16,14.64,38.42,16.81,7.01.93,15.13,1.1,19.99-4.04,3.23-3.4,4.18-8.48,3.53-13.12-.65-4.64-2.7-8.96-4.86-13.12-10.18-19.69-37.29-57.3-52.51-73.41,0,0,11.9,36.63,9.28,49.6-4.37,21.63-9.45,27.7-16.3,29.25,5.2,2.02-2.71,5.88,2.44,8.04Z"/>
          <path class="cls-9" d="M168.18,117.36c2.8,1.05,5.96,1.99,8.72.84,4.85-2.03,5.19-8.71,4.45-13.92-3.08-21.95-11.11-43.2-23.31-61.71-4.05-6.14-8.95-12.28-15.88-14.73-7.59-2.68-16.22-.28-22.84,4.29-5.82,4.02-13.16,10.77-16.17,17.31-3.17,6.89,2.5,14.24,6.1,19.88,8.84,13.85,20.53,25.87,34.11,35.11,7.73,5.26,16.07,9.63,24.82,12.92Z"/>
        </g>
      </g>
      <path class="cls-4" d="M81.12,184.7l.13-1.19c-.2,2.22-2.02,3.93-4.24,4.02l-54.53,11.09c-4.16.15-6.25-10.93,3.57-17.11,6.84-4.29,16.52-9.2,30.33-21.57,9.74-8.73,14.6-29.45,18.38-36.77,4.34-8.4,31.02,20.17,6.35,61.53Z"/>
      <path class="cls-4" d="M81.12,184.7s2.45,9.84,16.63,18.35c2.88,1.73-.46,6.5-3.7,5.83l-63.57,11.06c-2.11-.44-2.05-3.55.07-3.89l50.56-31.35Z"/>
      <path class="cls-7" d="M23.05,202.01h-.05c-2.21,0-3.99-1.8-3.99-4.01,0-2.21,1.8-3.99,4-3.99.02,0,.05,0,.07,0,9.78,0,51.45-7.78,55.9-10.44,1.9-1.14,4.35-.52,5.49,1.38s.52,4.35-1.38,5.49c-7.06,4.23-51.5,11.58-60.04,11.58Z"/>
      <path class="cls-7" d="M31.38,217.43c-1.79,0-3.43-1.22-3.88-3.04-.53-2.14.77-4.31,2.92-4.85,8.32-2.07,43.76-21.33,47.79-25.37,1.56-1.56,4.09-1.57,5.66,0,1.56,1.56,1.57,4.09,0,5.66-5.46,5.47-42.54,25.25-51.53,27.48-.32.08-.65.12-.97.12Z"/>
      <ellipse class="cls-1" cx="117.63" cy="121.71" rx="10.53" ry="19.77"/>
      <ellipse class="cls-1" cx="73.12" cy="151.22" rx="7.74" ry="3.12" transform="translate(-93.18 174.82) rotate(-72.27)"/>
      <ellipse class="cls-2" cx="109.4" cy="119.18" rx="6.85" ry="5.18"/>
      <path class="cls-1" d="M111.57,294.14c-.78,0-1.82-.29-2.89-1.4-5.49-5.69-13.19-34.96-9.49-56.84.23-1.36,1.52-2.28,2.88-2.05,1.36.23,2.28,1.52,2.05,2.88-3.69,21.78,4.71,48.55,7.94,52.32,28.75-3.92,46.32-13.2,69.31-36.52.97-.98,2.55-1,3.54-.03.98.97.99,2.55.02,3.54-23.78,24.12-42.87,34.08-72.94,38.06-.13.02-.27.03-.42.03ZM112.36,289.36h0,0Z"/>
      <path class="cls-4" d="M110.62,279.03c-17.4,5.24-24.34,38.28-24.34,38.28l11.43,5.41,9.99-13.73c3.13,2.77,9.83,5.27,15.76.87,16.93-12.55,3.49-35.75-12.84-30.83Z"/>
      <rect class="cls-8" x="100.88" y="291.25" width="12.4" height="6.71" transform="translate(161.65 -14.07) rotate(30)"/>
      <path class="cls-9" d="M323.9,270.55h0c13.32-16.39-1.58-40.33-22.18-35.69-2.89.65-51.14,18.8-86,31.97-21.38,8.08-26.79,36.05-9.72,51.25,26.14,23.28,64.04,31.54,99,18.2,12.75-4.87,23.87-12.13,33.05-21.09,15.42-15.04,7.12-41.24-14.15-44.65h0Z"/>
      <path class="cls-6" d="M320.04,260.43h0c13.32-16.39-1.58-40.33-22.18-35.69-2.89.65-51.14,18.8-86,31.97-21.38,8.08-26.79,36.05-9.72,51.25,26.14,23.28,64.04,31.54,99,18.2,12.75-4.87,23.87-12.13,33.05-21.09,15.42-15.04,7.12-41.24-14.15-44.65h0Z"/>
      <g>
        <path class="cls-4" d="M262.01,93.05c4.5.38,8.83-2.37,10.27-6.85,1.67-5.21-1.21-10.79-6.42-12.46-4.4-1.41-9.06.43-11.4,4.18-26.62-45.4-67.2-49.97-93.67-47.09L109.76,3.95c-4.88-2.57-10.41,1.99-8.79,7.29,25.52,83.64,69.13,120.74,91.66,134.99.21.13.43.23.64.34l25.72,47.98c4.27,7.96,14.42,9.86,20.23,3.78,16.97-17.74,43.34-55.61,22.78-105.28Z"/>
        <path class="cls-1" d="M160.23,32.64l34.33,103.62c1.85,5.6-4.28,10.34-9.19,7.1-22.06-14.56-64.55-52.15-88.22-135.51-1.5-5.28,4.06-9.7,8.85-7.05l51.3,28.32c1.38.76,2.43,2.03,2.93,3.53Z"/>
        <circle class="cls-1" cx="262.44" cy="83.08" r="10.35"/>
      </g>
      <path class="cls-1" d="M124.47,92.91s-10.83,5.51-16.85,8.24c-6.23,2.83-9.23-2.65-4.88-6.38,4.29-3.68,15.11-12.02,15.03-11.79,3.53-2.38,7.89-2.09,9.74.66h0c1.85,2.74.49,6.9-3.04,9.28Z"/>
      <ellipse class="cls-2" cx="33.43" cy="185.36" rx="7.4" ry="2.33" transform="translate(-72.48 29.61) rotate(-23.99)"/>
    </g>
  </g>
</svg>