<?xml version="1.0" encoding="UTF-8"?>
<svg id="Layer_2" xmlns="http://www.w3.org/2000/svg" xmlns:xlink="http://www.w3.org/1999/xlink" viewBox="0 0 277.28 198.49">
  <defs>
    <style>
      .cls-1 {
        fill: #303b70;
      }

      .cls-2 {
        fill: #e8f6f9;
      }

      .cls-3 {
        fill: none;
      }

      .cls-4 {
        fill: #f58431;
      }

      .cls-5 {
        clip-path: url(#clippath-1);
      }

      .cls-6 {
        fill: #60ccf2;
      }

      .cls-7 {
        fill: #b54e36;
      }

      .cls-8 {
        fill: #083551;
      }

      .cls-9 {
        fill: #0091d4;
      }

      .cls-10 {
        clip-path: url(#clippath-2);
      }

      .cls-11 {
        clip-path: url(#clippath);
      }
    </style>
    <clipPath id="clippath">
      <rect class="cls-3" x="73.44" y="0" width="97.58" height="97.58" transform="translate(244.46 97.58) rotate(-180)"/>
    </clipPath>
    <clipPath id="clippath-1">
      <path class="cls-3" d="M112.61,160.58s10,13.4,13.22,14.49c3.22,1.09,5.09,3.61,7.02,3.8s7.41,1.03,5.41,5.73-16.49,4.89-20.48,3.16c-3.99-1.74-13.27-6.31-18.68-6.89s-9.72-2.23-10.05-5.04,2.06-4.62,2-6.68,2.51-5.28,2.58-6.18,1.09-2.83,3.41-.06,3.16,5.35,9.14,3.99c0,0,.52-2.45,3.22-5.02s3.2-1.29,3.2-1.29Z"/>
    </clipPath>
    <clipPath id="clippath-2">
      <path class="cls-6" d="M65.97,123.61c5.74-2.81,4.67-19.65,42.24-22.87,1.08-.09,2.63-8.92-.93-10.98-47.92-27.77-7.7-78.41,22.98-65.16,7.52,3.25,18.62,9.62,18.62,33,0,10.12,4.45,24.42-10.02,26.31-16.02,2.1,13.24,19,13.24,39.08,0,25.31-22.97,25.88-31.98,25.85-34.56-.11-51.73,4.43-70.02-15.85-6.4-7.11,10.24-6.63,15.88-9.39Z"/>
    </clipPath>
  </defs>
  <g id="Layer_2-2" data-name="Layer_2">
    <g>
      <path class="cls-9" d="M238.98,99.08c-6.32,0-10.85-4.53-10.85-11.79v-41.5c0-7.07,4.53-11.79,10.85-11.79h25.56c5.57,0,11.51,3.77,11.51,11.6s-5.94,11.6-11.51,11.6h-12.07v4.24l4.53-1.42c1.79-.57,3.49-.85,5.09-.85,4.24,0,7.26,2.17,7.26,6.89s-2.92,7.07-7.92,7.07c-1.51,0-3.21-.19-5.09-.57l-3.87-.76v4.06h13.3c5.57,0,11.51,3.77,11.51,11.6s-5.94,11.6-11.51,11.6h-26.79Z"/>
      <path class="cls-4" d="M74.51,149.24v-29.05c0-7.26,5.66-11.79,12.17-11.79s12.17,4.53,12.17,11.79v24.43c0,4.91,1.51,7.64,5.75,7.64s5.75-2.74,5.75-7.64v-24.43c0-7.26,5.66-11.79,12.17-11.79s12.17,4.53,12.17,11.79v29.05c0,18.3-12.26,26.5-30.09,26.5s-30.09-8.21-30.09-26.5Z"/>
      <path class="cls-4" d="M143.35,159.61c0-5.09,3.96-9.62,9.34-9.62,3.49,0,5.47,1.04,7.45,2.26,2.26,1.23,4.62,2.55,9.43,2.55s6.89-.85,6.89-2.45c0-1.89-4.43-2.55-9.9-3.4-8.58-1.32-22.17-2.83-22.17-18.68,0-10.85,6.98-21.79,28.01-21.79,16.13,0,27.82,5.47,27.82,16.51,0,5.28-4.81,9.53-9.72,9.53-1.98,0-4.06-.66-6.22-1.98-3.68-2.17-7.17-3.68-11.13-3.68-2.45,0-4.06.75-4.06,2.26,0,2.26,6.04,3.11,10.75,3.49,8.11.66,21.41,2.92,21.41,18.01,0,11.22-8.58,23.11-29.43,23.11-15,0-28.49-5.75-28.49-16.13Z"/>
      <path class="cls-9" d="M72.69,60.31c-1.78-6.71-.45-13.48,1.02-18.03.91-2.82-.31-5.93-2.92-7.33-2.47-1.33-5.54-2.08-9.2-2.08-10.28,0-15.19,4.62-18.77,17.45l-3.68,13.2-3.68-13.2c-3.58-12.83-8.49-17.45-18.77-17.45-11.04,0-16.7,6.79-16.7,15.66v39.99c0,5.85,3.3,11.7,11.32,11.7s11.32-5.85,11.32-11.7v-19.62h.19l7.26,24.99c1.23,4.15,5.28,6.32,9.05,6.32s7.83-2.17,9.05-6.32l7.26-24.99h.19v19.43c0,5.85,3.3,11.88,11.32,11.88s11.32-6.04,11.32-11.88v-13.67c0-1.18-.32-2.33-.92-3.34-1.75-2.96-3.53-6.69-4.68-11.01Z"/>
      <path class="cls-9" d="M206.83,32.87c-6.89,0-10.85,3.68-12.55,11.6l-5.94,27.16-5.94-27.16c-1.7-7.92-5.66-11.6-12.55-11.6-8.11,0-15.66,7.55-11.7,19.43l3,9.06c.77,2.33,2.45,4.28,4.68,5.3,3.15,1.43,7.17,4.36,7.78,10.06.38,3.49-.31,6.24-2.05,8.17-.15.17-.31.33-.47.48-.86.8-1.19,2.03-.7,3.1,4.71,10.29,11.11,11.47,17.94,11.47,7.73,0,14.9-1.51,19.71-16.03l10.47-31.6c3.96-11.89-3.58-19.43-11.7-19.43Z"/>
      <g class="cls-11">
        <g>
          <g>
            <path class="cls-3" d="M109.01,167.11c.03.94-.45,1.82-.95,2.77-.53,1.01-1.09,2.1-1.08,3.41-.94,1.68-1.62,4.91-2.57,6.56,10,5.83,16.14,4.84,19.62,6.02,2.75.93,6.8,4.28,12.99,5.5-.09.04-.18.08-.28.11-1.29.42-7.17,2.13-11.98,2.34-.37.02-.73.02-1.09.02-8.86,0-14.21-4.81-17.58-5.95-3.48-1.17-9.62-.19-19.62-6.02.94-1.65,1.63-4.87,2.57-6.56-.01-2.53,2.09-4.24,2.03-6.18-.06-2.06,2.51-5.28,2.58-6.18.04-.55.45-1.5,1.29-1.5.53,0,1.23.37,2.12,1.43,1.88,2.25,2.79,4.36,6.25,4.36.81,0,1.76-.12,2.89-.37,0,0,.52-2.45,3.22-5.02,1.11-1.06,1.85-1.46,2.33-1.57-.1.22-.15.45-.17.64-.06.9-2.64,4.12-2.58,6.18Z"/>
            <path class="cls-1" d="M124.14,164.86c-2.76.62-4.43.41-5.65-.27-.65-.8-1.26-1.56-1.8-2.26l.17-19.56h10.45s-.15,17.26-.15,17.26c-2.52,2.5-3.02,4.82-3.02,4.82Z"/>
            <path class="cls-1" d="M104.41,179.85c.94-1.65,1.63-4.87,2.57-6.56,0,.16,0,.33.03.5.32,2.81,4.64,4.46,10.05,5.04,5.41.58,14.68,5.15,18.68,6.89.66.29,1.61.52,2.74.69.13,1.71.39,4.12-1.44,4.95-6.19-1.22-10.24-4.58-12.99-5.5-3.48-1.17-9.62-.19-19.62-6.02Z"/>
            <path class="cls-1" d="M140.65,186.64c5.6.38,13.42-.54,15.34-3.67.14.03.27.05.41.08-.25,1.41,1.07,5.47-1.71,6.39-1.29.42-7.17,2.13-11.98,2.34-1.01.04-1.97.02-2.89-.05,1.05-1.61.93-3.77.84-5.1Z"/>
            <path class="cls-4" d="M156.58,180.1c-.51-2.55-4.25-3.11-5.78-3.27-1.93-.19-3.8-2.7-7.02-3.8-.86-.29-2.22-1.48-3.74-3.05l-2.62,2.52c-.17.17-.4.25-.62.25-.24,0-.47-.09-.65-.28-.34-.36-.33-.93.03-1.27l2.64-2.53c-.59-.65-1.18-1.33-1.78-2.02l-2.96,3.19c-.18.19-.42.29-.66.29-.22,0-.44-.08-.61-.24-.36-.34-.39-.91-.05-1.27l3.04-3.27s.06-.05.08-.08c-2.87-3.45-5.32-6.73-5.32-6.73,0,0-.49-1.29-3.2,1.29-.07.07-.13.13-.2.2l-.08,9.69h-4.17c2.63,2.84,3.52,3.25,3.64,3.3,1.91.65,3.37,1.69,4.55,2.53.74.53,1.59,1.13,1.98,1.17,2.91.29,5.03,1.11,6.33,2.45,3.78.99,7.5,1.87,11.34,2.71.37-.07.74-.16,1.11-.25,1.33-.35,2.45-1.08,3.71-1.51.33-.11.67-.1,1.01-.02ZM129.29,165.96c0,.52-.42.93-.93.93s-.93-.42-.93-.93.42-.93.93-.93.93.42.93.93Z"/>
            <path class="cls-4" d="M112.61,160.58s1.76,2.36,4.05,5.18l-.03,3.97h3.37c2.31,2.63,4.59,4.92,5.84,5.34.33.11.64.24.95.38-5.06-1.69-10.16-3.38-15.17-3.1-.24-.19-.48-.39-.71-.61-.7-.67-1.34-1.48-2.26-1.76-.19-.06-.39-.09-.58-.1.5-.95.97-1.83.95-2.77-.06-2.06,2.51-5.28,2.58-6.18.01-.19.07-.41.17-.64.11-.02.2-.04.28-.04.46,0,.59.32.59.32Z"/>
            <path class="cls-4" d="M122.9,169.73c-.89-.96-1.97-2.19-3.29-3.77-.38-.46-.76-.92-1.13-1.37,1.22.68,2.89.89,5.65.27,0,0,.49-2.32,3.02-4.82l-.08,9.69h-4.17Z"/>
            <path class="cls-4" d="M116.66,165.76c1.04,1.29,2.19,2.67,3.33,3.97h-3.37l.03-3.97Z"/>
            <path class="cls-4" d="M139.41,179.17c3.78.99,7.5,1.87,11.34,2.71-2.47.49-5.02.52-7.51.25-.83-.09-1.65-.21-2.47-.36-.12-.65-.35-1.19-.6-1.61-.21-.36-.47-.69-.76-.99Z"/>
            <path class="cls-4" d="M138.29,181.23c-5.66-1.41-11.04-3.84-16.7-5.26-3.46-.87-7.21-1.46-9.97-3.62,5.01-.28,10.11,1.4,15.17,3.1,2.65,1.21,4.34,3.25,6.07,3.42,1.33.13,4.34.57,5.43,2.36Z"/>
            <path class="cls-1" d="M128.36,166.89c-.52,0-.93-.42-.93-.93s.42-.93.93-.93.93.42.93.93-.42.93-.93.93Z"/>
            <path class="cls-6" d="M106.98,173.29c0-1.31.55-2.4,1.08-3.41.19,0,.39.04.58.1.92.29,1.56,1.1,2.26,1.76.23.22.47.42.71.61-1.54.09-3.08.36-4.6.88-.01.02-.02.04-.03.06Z"/>
            <path class="cls-6" d="M151.86,181.62c1.33-.35,2.45-1.08,3.71-1.51.33-.11.67-.1,1.01-.02.13.67.05,1.48-.37,2.47-.06.14-.13.28-.21.41-1.79-.36-3.53-.72-5.25-1.1.37-.07.74-.16,1.11-.25Z"/>
            <path class="cls-6" d="M140.65,186.64c0-.06,0-.12-.01-.18-.1-1.28.18-3.09.18-3.11.06-.59.03-1.12-.06-1.59.82.15,1.64.27,2.47.36,2.5.27,5.05.24,7.51-.25,1.72.37,3.47.74,5.25,1.1-1.92,3.13-9.74,4.05-15.34,3.67Z"/>
            <path class="cls-6" d="M117.06,178.83c-5.41-.58-9.72-2.23-10.05-5.04-.02-.17-.03-.33-.03-.5.01-.02.02-.04.03-.06,1.52-.52,3.06-.79,4.6-.88,2.76,2.17,6.51,2.76,9.97,3.62,5.66,1.42,11.04,3.84,16.7,5.26.5.81.6,1.9-.02,3.37-.06.14-.13.28-.21.41.14.03.27.05.41.08-.06.32-.03.79,0,1.32-1.13-.17-2.08-.4-2.74-.69-3.99-1.74-13.27-6.31-18.68-6.89Z"/>
            <path class="cls-1" d="M137.06,165.3c.36.34.39.91.05,1.27l-.07.08c-.39-.46-.78-.92-1.16-1.38.34-.29.85-.28,1.19.03Z"/>
            <path class="cls-1" d="M133.41,170.13c-.22,0-.44-.08-.61-.24-.36-.34-.39-.91-.05-1.27l3.04-3.27s.06-.05.08-.08c.38.46.77.92,1.16,1.38l-2.96,3.19c-.18.19-.42.29-.66.29Z"/>
            <path class="cls-1" d="M138.85,168.64c.36-.34.93-.33,1.27.03.34.36.33.93-.03,1.27l-.05.05c-.4-.42-.81-.85-1.23-1.32l.03-.03Z"/>
            <path class="cls-1" d="M136.8,172.76c-.24,0-.47-.09-.65-.28-.34-.36-.33-.93.03-1.27l2.64-2.53c.42.46.83.9,1.23,1.32l-2.62,2.52c-.17.17-.4.25-.62.25Z"/>
            <polygon class="cls-1" points="97.23 170.8 107.68 170.8 107.91 144.63 97.46 144.63 97.23 170.8"/>
            <g>
              <path class="cls-1" d="M138.46,185.09c-.25,1.41,1.07,5.47-1.71,6.39-1.29.42-7.17,2.13-11.98,2.34-9.51.42-15.16-4.74-18.67-5.92s-9.62-.19-19.62-6.02c.95-1.67,1.65-4.95,2.6-6.62,8.21-2.79,16.75,1.5,25.08,3.92,8.33,2.42,15.85,4.22,24.31,5.91Z"/>
              <path class="cls-4" d="M112.61,160.58s10,13.4,13.22,14.49c3.22,1.09,5.09,3.61,7.02,3.8s7.41,1.03,5.41,5.73-16.49,4.89-20.48,3.16c-3.99-1.74-13.27-6.31-18.68-6.89s-9.72-2.23-10.05-5.04,2.06-4.62,2-6.68,2.51-5.28,2.58-6.18,1.09-2.83,3.41-.06,3.16,5.35,9.14,3.99c0,0,.52-2.45,3.22-5.02s3.2-1.29,3.2-1.29Z"/>
              <circle class="cls-1" cx="110.41" cy="167.99" r=".93"/>
              <g class="cls-5">
                <path class="cls-6" d="M120.49,183.3c-5.72-1.41-11.14-3.87-16.85-5.3-3.76-.94-7.88-1.55-10.68-4.23-.7-.67-1.34-1.48-2.26-1.76-1.33-.42-2.81.48-3.45,1.72s-.62,2.71-.43,4.1c1.09,7.82,7.25,14.26,14.47,17.44,7.22,3.18,15.37,3.55,23.25,3.04,3.7-.24,7.48-.69,10.78-2.38s6.05-4.86,6.3-8.56c.09-1.29-.15-2.64-.89-3.7-.61-.88-1.97-1.9-3.1-1.51-1.26.43-2.38,1.16-3.71,1.51-2.8.74-5.75.81-8.62.5-1.62-.17-3.22-.47-4.8-.86Z"/>
              </g>
              <path class="cls-1" d="M115.47,172.17c.24,0,.48-.1.66-.29l3.04-3.27c.34-.36.32-.93-.05-1.27-.36-.34-.93-.32-1.27.05l-3.04,3.27c-.34.36-.32.93.05,1.27.17.16.39.24.61.24Z"/>
              <path class="cls-1" d="M118.86,174.79c.22,0,.45-.08.62-.25l2.67-2.57c.36-.34.37-.91.03-1.27-.34-.36-.91-.37-1.27-.03l-2.67,2.57c-.36.34-.37.91-.03,1.27.18.18.41.28.65.28Z"/>
            </g>
          </g>
          <g>
            <path class="cls-6" d="M65.97,123.61c5.74-2.81,4.67-19.65,42.24-22.87,1.08-.09,2.63-8.92-.93-10.98-47.92-27.77-7.7-78.41,22.98-65.16,7.52,3.25,18.62,9.62,18.62,33,0,10.12,4.45,24.42-10.02,26.31-16.02,2.1,13.24,19,13.24,39.08,0,25.31-22.97,25.88-31.98,25.85-34.56-.11-51.73,4.43-70.02-15.85-6.4-7.11,10.24-6.63,15.88-9.39Z"/>
            <g class="cls-10">
              <path class="cls-9" d="M105.25,93.78c-5.45,2.28-7.98,5.27-13.84,6.05-2.52.34-5.45.39-7.2-1.45-1.16-1.23-1.51-3.06-1.27-4.73s.97-3.23,1.75-4.73c3.67-7.09,13.43-20.64,18.91-26.44,0,0-4.29,13.19-3.34,17.86,1.58,7.79,3.4,9.98,5.87,10.54-1.87.73.98,2.12-.88,2.89Z"/>
              <path class="cls-9" d="M114.87,50.93c-1.01.38-2.15.72-3.14.3-1.75-.73-1.87-3.14-1.6-5.01,1.11-7.91,4-15.56,8.4-22.23,1.46-2.21,3.22-4.42,5.72-5.31,2.73-.96,5.84-.1,8.23,1.55,2.1,1.45,4.74,3.88,5.83,6.24,1.14,2.48-.9,5.13-2.2,7.16-3.18,4.99-7.4,9.32-12.29,12.65-2.78,1.9-5.79,3.47-8.94,4.65Z"/>
            </g>
          </g>
          <path class="cls-4" d="M146.23,75.19l-.05-.43c.07.8.73,1.42,1.53,1.45l19.64,4c1.5.05,2.25-3.94-1.29-6.16-2.46-1.55-5.95-3.31-10.92-7.77-3.51-3.14-5.26-10.61-6.62-13.24-1.56-3.03-11.17,7.27-2.29,22.16Z"/>
          <path class="cls-4" d="M146.23,75.19s-.88,3.54-5.99,6.61c-1.04.62.16,2.34,1.33,2.1l24.86-1.49c.76-.16.74-1.28-.03-1.4l-20.18-5.82Z"/>
          <path class="cls-7" d="M167.03,81.42c-4.52,0-8.96-.72-13.2-2.14-2.8-.94-5.52-2.19-8.07-3.72-.68-.41-.91-1.29-.5-1.98.41-.68,1.29-.91,1.98-.5,2.38,1.42,4.9,2.58,7.51,3.46,3.99,1.34,8.16,2.01,12.41,2h0c.79,0,1.44.64,1.44,1.44,0,.8-.64,1.44-1.44,1.45-.05,0-.09,0-.14,0Z"/>
          <ellipse class="cls-1" cx="133.08" cy="52.5" rx="3.79" ry="7.12"/>
          <ellipse class="cls-1" cx="149.12" cy="63.13" rx="1.12" ry="2.79" transform="translate(-12.14 48.41) rotate(-17.73)"/>
          <ellipse class="cls-2" cx="136.05" cy="51.59" rx="2.47" ry="1.87"/>
          <path class="cls-4" d="M135.61,109.16c6.27,1.89,8.77,13.79,8.77,13.79l-4.12,1.95-3.6-4.95c-1.13,1-3.54,1.9-5.68.31-6.1-4.52-1.26-12.88,4.63-11.1Z"/>
          <rect class="cls-8" x="134.65" y="113.56" width="4.47" height="2.42" transform="translate(312.81 145.72) rotate(150)"/>
          <path class="cls-9" d="M62.79,118.89h0c-6.59-3.8-4.65-13.77,2.88-14.86,1.06-.15,19.62-.24,33.05-.29,8.23-.03,13.65,8.69,9.86,16-5.81,11.19-17.5,18.84-30.98,18.84-4.91,0-9.59-1.02-13.83-2.85-7.12-3.08-7.69-12.96-.97-16.84h0Z"/>
          <path class="cls-6" d="M62.79,114.99h0c-6.59-3.8-4.65-13.77,2.88-14.86,1.06-.15,19.62-.24,33.05-.29,8.23-.03,13.65,8.69,9.86,16-5.81,11.19-17.5,18.84-30.98,18.84-4.91,0-9.59-1.02-13.83-2.85-7.12-3.08-7.69-12.96-.97-16.84h0Z"/>
          <g>
            <path class="cls-4" d="M81.08,42.17c-1.62.14-3.18-.85-3.7-2.47-.6-1.88.44-3.89,2.31-4.49,1.59-.51,3.26.16,4.11,1.51,9.59-16.35,24.21-18,33.74-16.96l18.38-9.68c1.76-.93,3.75.72,3.17,2.63-9.19,30.13-24.9,43.49-33.02,48.62-.08.05-.15.08-.23.12l-9.26,17.28c-1.54,2.87-5.19,3.55-7.29,1.36-6.11-6.39-15.61-20.03-8.21-37.92Z"/>
            <path class="cls-1" d="M117.74,20.41l-12.36,37.32c-.67,2.02,1.54,3.72,3.31,2.56,7.94-5.24,23.25-18.78,31.78-48.81.54-1.9-1.46-3.49-3.19-2.54l-18.48,10.2c-.5.28-.88.73-1.06,1.27Z"/>
            <circle class="cls-1" cx="80.92" cy="38.58" r="3.73"/>
          </g>
          <path class="cls-1" d="M131.09,44.36s3.97-1.83,6.09-2.93,1.31-3.2-.71-2.8-6.77,1.59-6.69,1.62c-1.46.47-2.35,1.77-1.99,2.9h0c.36,1.14,1.84,1.68,3.3,1.21Z"/>
          <ellipse class="cls-2" cx="163.77" cy="75.89" rx=".87" ry="2.75" transform="translate(39.15 206.46) rotate(-71.2)"/>
        </g>
      </g>
    </g>
  </g>
</svg>