<?xml version="1.0" encoding="UTF-8" standalone="no"?>
<svg
   id="Layer_2"
   viewBox="0 0 413.319 92.829229"
   version="1.1"
   sodipodi:docname="moveus-logo.svg"
   inkscape:export-filename="moveus-logo-horizontal.svg"
   inkscape:export-xdpi="300"
   inkscape:export-ydpi="300"
   width="413.319"
   height="92.829231"
   xmlns:inkscape="http://www.inkscape.org/namespaces/inkscape"
   xmlns:sodipodi="http://sodipodi.sourceforge.net/DTD/sodipodi-0.dtd"
   xmlns="http://www.w3.org/2000/svg"
   xmlns:svg="http://www.w3.org/2000/svg">
  <sodipodi:namedview
     id="namedview46"
     pagecolor="#ffffff"
     bordercolor="#000000"
     borderopacity="0.25"
     inkscape:showpageshadow="2"
     inkscape:pageopacity="0.0"
     inkscape:pagecheckerboard="0"
     inkscape:deskcolor="#d1d1d1"
     showguides="true">
    <sodipodi:guide
       position="442.7395,-51.863812"
       orientation="1,0"
       id="guide46"
       inkscape:locked="false" />
    <inkscape:page
       x="0"
       y="0"
       width="413.319"
       height="92.829231"
       id="page2"
       margin="0"
       bleed="0" />
  </sodipodi:namedview>
  <defs
     id="defs2">
    <style
       id="style1">
      .cls-1 {
        fill: #303b70;
      }

      .cls-2 {
        fill: #e8f6f9;
      }

      .cls-3 {
        fill: none;
      }

      .cls-4 {
        fill: #f58431;
      }

      .cls-5 {
        clip-path: url(#clippath-1);
      }

      .cls-6 {
        fill: #60ccf2;
      }

      .cls-7 {
        fill: #b54e36;
      }

      .cls-8 {
        fill: #083551;
      }

      .cls-9 {
        fill: #0091d4;
      }

      .cls-10 {
        clip-path: url(#clippath-2);
      }

      .cls-11 {
        clip-path: url(#clippath);
      }
    </style>
    <clipPath
       id="clippath">
      <rect
         class="cls-3"
         x="73.440002"
         y="0"
         width="97.580002"
         height="97.580002"
         transform="rotate(180,122.23,48.79)"
         id="rect1" />
    </clipPath>
    <clipPath
       id="clippath-1">
      <path
         class="cls-3"
         d="m 112.61,160.58 c 0,0 10,13.4 13.22,14.49 3.22,1.09 5.09,3.61 7.02,3.8 1.93,0.19 7.41,1.03 5.41,5.73 -2,4.7 -16.49,4.89 -20.48,3.16 -3.99,-1.74 -13.27,-6.31 -18.68,-6.89 -5.41,-0.58 -9.72,-2.23 -10.05,-5.04 -0.33,-2.81 2.06,-4.62 2,-6.68 -0.06,-2.06 2.51,-5.28 2.58,-6.18 0.07,-0.9 1.09,-2.83 3.41,-0.06 2.32,2.77 3.16,5.35 9.14,3.99 0,0 0.52,-2.45 3.22,-5.02 2.7,-2.57 3.2,-1.29 3.2,-1.29 z"
         id="path1" />
    </clipPath>
    <clipPath
       id="clippath-2">
      <path
         class="cls-6"
         d="m 65.97,123.61 c 5.74,-2.81 4.67,-19.65 42.24,-22.87 1.08,-0.09 2.63,-8.92 -0.93,-10.98 -47.92,-27.77 -7.7,-78.41 22.98,-65.16 7.52,3.25 18.62,9.62 18.62,33 0,10.12 4.45,24.42 -10.02,26.31 -16.02,2.1 13.24,19 13.24,39.08 0,25.31 -22.97,25.88 -31.98,25.85 -34.56,-0.11 -51.73,4.43 -70.02,-15.85 -6.4,-7.11 10.24,-6.63 15.88,-9.39 z"
         id="path2" />
    </clipPath>
  </defs>
  <g
     id="Layer_2-2"
     data-name="Layer_2"
     transform="translate(0.01,-8.6567668)">
    <g
       id="g46">
      <path
         class="cls-9"
         d="m 238.98,99.08 c -6.32,0 -10.85,-4.53 -10.85,-11.79 v -41.5 c 0,-7.07 4.53,-11.79 10.85,-11.79 h 25.56 c 5.57,0 11.51,3.77 11.51,11.6 0,7.83 -5.94,11.6 -11.51,11.6 h -12.07 v 4.24 L 257,60.02 c 1.79,-0.57 3.49,-0.85 5.09,-0.85 4.24,0 7.26,2.17 7.26,6.89 0,4.72 -2.92,7.07 -7.92,7.07 -1.51,0 -3.21,-0.19 -5.09,-0.57 l -3.87,-0.76 v 4.06 h 13.3 c 5.57,0 11.51,3.77 11.51,11.6 0,7.83 -5.94,11.6 -11.51,11.6 h -26.79 z"
         id="path3" />
      <path
         class="cls-4"
         d="m 286.569,74.986 v -29.05 c 0,-7.26 5.66,-11.79 12.17,-11.79 6.51,0 12.17,4.53 12.17,11.79 v 24.43 c 0,4.91 1.51,7.64 5.75,7.64 4.24,0 5.75,-2.74 5.75,-7.64 v -24.43 c 0,-7.26 5.66,-11.79 12.17,-11.79 6.51,0 12.17,4.53 12.17,11.79 v 29.05 c 0,18.3 -12.26,26.5 -30.09,26.5 -17.83,0 -30.09,-8.21 -30.09,-26.5 z"
         id="path4" />
      <path
         class="cls-4"
         d="m 355.409,85.356 c 0,-5.09 3.96,-9.62 9.34,-9.62 3.49,0 5.47,1.04 7.45,2.26 2.26,1.23 4.62,2.55 9.43,2.55 4.81,0 6.89,-0.85 6.89,-2.45 0,-1.89 -4.43,-2.55 -9.9,-3.4 -8.58,-1.32 -22.17,-2.83 -22.17,-18.68 0,-10.85 6.98,-21.79 28.01,-21.79 16.13,0 27.82,5.47 27.82,16.51 0,5.28 -4.81,9.53 -9.72,9.53 -1.98,0 -4.06,-0.66 -6.22,-1.98 -3.68,-2.17 -7.17,-3.68 -11.13,-3.68 -2.45,0 -4.06,0.75 -4.06,2.26 0,2.26 6.04,3.11 10.75,3.49 8.11,0.66 21.41,2.92 21.41,18.01 0,11.22 -8.58,23.11 -29.43,23.11 -15,0 -28.49,-5.75 -28.49,-16.13 z"
         id="path5" />
      <path
         class="cls-9"
         d="m 72.69,60.31 c -1.78,-6.71 -0.45,-13.48 1.02,-18.03 0.91,-2.82 -0.31,-5.93 -2.92,-7.33 -2.47,-1.33 -5.54,-2.08 -9.2,-2.08 -10.28,0 -15.19,4.62 -18.77,17.45 l -3.68,13.2 -3.68,-13.2 C 31.88,37.49 26.97,32.87 16.69,32.87 c -11.04,0 -16.7,6.79 -16.7,15.66 v 39.99 c 0,5.85 3.3,11.7 11.32,11.7 8.02,0 11.32,-5.85 11.32,-11.7 V 68.9 h 0.19 l 7.26,24.99 c 1.23,4.15 5.28,6.32 9.05,6.32 3.77,0 7.83,-2.17 9.05,-6.32 L 55.44,68.9 h 0.19 v 19.43 c 0,5.85 3.3,11.88 11.32,11.88 8.02,0 11.32,-6.04 11.32,-11.88 V 74.66 c 0,-1.18 -0.32,-2.33 -0.92,-3.34 -1.75,-2.96 -3.53,-6.69 -4.68,-11.01 z"
         id="path6" />
      <path
         class="cls-9"
         d="m 206.83,32.87 c -6.89,0 -10.85,3.68 -12.55,11.6 l -5.94,27.16 -5.94,-27.16 c -1.7,-7.92 -5.66,-11.6 -12.55,-11.6 -8.11,0 -15.66,7.55 -11.7,19.43 l 3,9.06 c 0.77,2.33 2.45,4.28 4.68,5.3 3.15,1.43 7.17,4.36 7.78,10.06 0.38,3.49 -0.31,6.24 -2.05,8.17 -0.15,0.17 -0.31,0.33 -0.47,0.48 -0.86,0.8 -1.19,2.03 -0.7,3.1 4.71,10.29 11.11,11.47 17.94,11.47 7.73,0 14.9,-1.51 19.71,-16.03 l 10.47,-31.6 c 3.96,-11.89 -3.58,-19.43 -11.7,-19.43 z"
         id="path7" />
      <g
         class="cls-11"
         clip-path="url(#clippath)"
         id="g45">
        <g
           id="g44">
          <g
             id="g32">
            <path
               class="cls-3"
               d="m 109.01,167.11 c 0.03,0.94 -0.45,1.82 -0.95,2.77 -0.53,1.01 -1.09,2.1 -1.08,3.41 -0.94,1.68 -1.62,4.91 -2.57,6.56 10,5.83 16.14,4.84 19.62,6.02 2.75,0.93 6.8,4.28 12.99,5.5 -0.09,0.04 -0.18,0.08 -0.28,0.11 -1.29,0.42 -7.17,2.13 -11.98,2.34 -0.37,0.02 -0.73,0.02 -1.09,0.02 -8.86,0 -14.21,-4.81 -17.58,-5.95 -3.48,-1.17 -9.62,-0.19 -19.62,-6.02 0.94,-1.65 1.63,-4.87 2.57,-6.56 -0.01,-2.53 2.09,-4.24 2.03,-6.18 -0.06,-2.06 2.51,-5.28 2.58,-6.18 0.04,-0.55 0.45,-1.5 1.29,-1.5 0.53,0 1.23,0.37 2.12,1.43 1.88,2.25 2.79,4.36 6.25,4.36 0.81,0 1.76,-0.12 2.89,-0.37 0,0 0.52,-2.45 3.22,-5.02 1.11,-1.06 1.85,-1.46 2.33,-1.57 -0.1,0.22 -0.15,0.45 -0.17,0.64 -0.06,0.9 -2.64,4.12 -2.58,6.18 z"
               id="path8" />
            <path
               class="cls-1"
               d="m 124.14,164.86 c -2.76,0.62 -4.43,0.41 -5.65,-0.27 -0.65,-0.8 -1.26,-1.56 -1.8,-2.26 l 0.17,-19.56 h 10.45 c 0,0 -0.15,17.26 -0.15,17.26 -2.52,2.5 -3.02,4.82 -3.02,4.82 z"
               id="path9" />
            <path
               class="cls-1"
               d="m 104.41,179.85 c 0.94,-1.65 1.63,-4.87 2.57,-6.56 0,0.16 0,0.33 0.03,0.5 0.32,2.81 4.64,4.46 10.05,5.04 5.41,0.58 14.68,5.15 18.68,6.89 0.66,0.29 1.61,0.52 2.74,0.69 0.13,1.71 0.39,4.12 -1.44,4.95 -6.19,-1.22 -10.24,-4.58 -12.99,-5.5 -3.48,-1.17 -9.62,-0.19 -19.62,-6.02 z"
               id="path10" />
            <path
               class="cls-1"
               d="m 140.65,186.64 c 5.6,0.38 13.42,-0.54 15.34,-3.67 0.14,0.03 0.27,0.05 0.41,0.08 -0.25,1.41 1.07,5.47 -1.71,6.39 -1.29,0.42 -7.17,2.13 -11.98,2.34 -1.01,0.04 -1.97,0.02 -2.89,-0.05 1.05,-1.61 0.93,-3.77 0.84,-5.1 z"
               id="path11" />
            <path
               class="cls-4"
               d="m 156.58,180.1 c -0.51,-2.55 -4.25,-3.11 -5.78,-3.27 -1.93,-0.19 -3.8,-2.7 -7.02,-3.8 -0.86,-0.29 -2.22,-1.48 -3.74,-3.05 l -2.62,2.52 c -0.17,0.17 -0.4,0.25 -0.62,0.25 -0.24,0 -0.47,-0.09 -0.65,-0.28 -0.34,-0.36 -0.33,-0.93 0.03,-1.27 l 2.64,-2.53 c -0.59,-0.65 -1.18,-1.33 -1.78,-2.02 l -2.96,3.19 c -0.18,0.19 -0.42,0.29 -0.66,0.29 -0.22,0 -0.44,-0.08 -0.61,-0.24 -0.36,-0.34 -0.39,-0.91 -0.05,-1.27 l 3.04,-3.27 c 0,0 0.06,-0.05 0.08,-0.08 -2.87,-3.45 -5.32,-6.73 -5.32,-6.73 0,0 -0.49,-1.29 -3.2,1.29 -0.07,0.07 -0.13,0.13 -0.2,0.2 l -0.08,9.69 h -4.17 c 2.63,2.84 3.52,3.25 3.64,3.3 1.91,0.65 3.37,1.69 4.55,2.53 0.74,0.53 1.59,1.13 1.98,1.17 2.91,0.29 5.03,1.11 6.33,2.45 3.78,0.99 7.5,1.87 11.34,2.71 0.37,-0.07 0.74,-0.16 1.11,-0.25 1.33,-0.35 2.45,-1.08 3.71,-1.51 0.33,-0.11 0.67,-0.1 1.01,-0.02 z m -27.29,-14.14 c 0,0.52 -0.42,0.93 -0.93,0.93 -0.51,0 -0.93,-0.42 -0.93,-0.93 0,-0.51 0.42,-0.93 0.93,-0.93 0.51,0 0.93,0.42 0.93,0.93 z"
               id="path12" />
            <path
               class="cls-4"
               d="m 112.61,160.58 c 0,0 1.76,2.36 4.05,5.18 l -0.03,3.97 H 120 c 2.31,2.63 4.59,4.92 5.84,5.34 0.33,0.11 0.64,0.24 0.95,0.38 -5.06,-1.69 -10.16,-3.38 -15.17,-3.1 -0.24,-0.19 -0.48,-0.39 -0.71,-0.61 -0.7,-0.67 -1.34,-1.48 -2.26,-1.76 -0.19,-0.06 -0.39,-0.09 -0.58,-0.1 0.5,-0.95 0.97,-1.83 0.95,-2.77 -0.06,-2.06 2.51,-5.28 2.58,-6.18 0.01,-0.19 0.07,-0.41 0.17,-0.64 0.11,-0.02 0.2,-0.04 0.28,-0.04 0.46,0 0.59,0.32 0.59,0.32 z"
               id="path13" />
            <path
               class="cls-4"
               d="m 122.9,169.73 c -0.89,-0.96 -1.97,-2.19 -3.29,-3.77 -0.38,-0.46 -0.76,-0.92 -1.13,-1.37 1.22,0.68 2.89,0.89 5.65,0.27 0,0 0.49,-2.32 3.02,-4.82 l -0.08,9.69 z"
               id="path14" />
            <path
               class="cls-4"
               d="m 116.66,165.76 c 1.04,1.29 2.19,2.67 3.33,3.97 h -3.37 l 0.03,-3.97 z"
               id="path15" />
            <path
               class="cls-4"
               d="m 139.41,179.17 c 3.78,0.99 7.5,1.87 11.34,2.71 -2.47,0.49 -5.02,0.52 -7.51,0.25 -0.83,-0.09 -1.65,-0.21 -2.47,-0.36 -0.12,-0.65 -0.35,-1.19 -0.6,-1.61 -0.21,-0.36 -0.47,-0.69 -0.76,-0.99 z"
               id="path16" />
            <path
               class="cls-4"
               d="m 138.29,181.23 c -5.66,-1.41 -11.04,-3.84 -16.7,-5.26 -3.46,-0.87 -7.21,-1.46 -9.97,-3.62 5.01,-0.28 10.11,1.4 15.17,3.1 2.65,1.21 4.34,3.25 6.07,3.42 1.33,0.13 4.34,0.57 5.43,2.36 z"
               id="path17" />
            <path
               class="cls-1"
               d="m 128.36,166.89 c -0.52,0 -0.93,-0.42 -0.93,-0.93 0,-0.51 0.42,-0.93 0.93,-0.93 0.51,0 0.93,0.42 0.93,0.93 0,0.51 -0.42,0.93 -0.93,0.93 z"
               id="path18" />
            <path
               class="cls-6"
               d="m 106.98,173.29 c 0,-1.31 0.55,-2.4 1.08,-3.41 0.19,0 0.39,0.04 0.58,0.1 0.92,0.29 1.56,1.1 2.26,1.76 0.23,0.22 0.47,0.42 0.71,0.61 -1.54,0.09 -3.08,0.36 -4.6,0.88 -0.01,0.02 -0.02,0.04 -0.03,0.06 z"
               id="path19" />
            <path
               class="cls-6"
               d="m 151.86,181.62 c 1.33,-0.35 2.45,-1.08 3.71,-1.51 0.33,-0.11 0.67,-0.1 1.01,-0.02 0.13,0.67 0.05,1.48 -0.37,2.47 -0.06,0.14 -0.13,0.28 -0.21,0.41 -1.79,-0.36 -3.53,-0.72 -5.25,-1.1 0.37,-0.07 0.74,-0.16 1.11,-0.25 z"
               id="path20" />
            <path
               class="cls-6"
               d="m 140.65,186.64 c 0,-0.06 0,-0.12 -0.01,-0.18 -0.1,-1.28 0.18,-3.09 0.18,-3.11 0.06,-0.59 0.03,-1.12 -0.06,-1.59 0.82,0.15 1.64,0.27 2.47,0.36 2.5,0.27 5.05,0.24 7.51,-0.25 1.72,0.37 3.47,0.74 5.25,1.1 -1.92,3.13 -9.74,4.05 -15.34,3.67 z"
               id="path21" />
            <path
               class="cls-6"
               d="m 117.06,178.83 c -5.41,-0.58 -9.72,-2.23 -10.05,-5.04 -0.02,-0.17 -0.03,-0.33 -0.03,-0.5 0.01,-0.02 0.02,-0.04 0.03,-0.06 1.52,-0.52 3.06,-0.79 4.6,-0.88 2.76,2.17 6.51,2.76 9.97,3.62 5.66,1.42 11.04,3.84 16.7,5.26 0.5,0.81 0.6,1.9 -0.02,3.37 -0.06,0.14 -0.13,0.28 -0.21,0.41 0.14,0.03 0.27,0.05 0.41,0.08 -0.06,0.32 -0.03,0.79 0,1.32 -1.13,-0.17 -2.08,-0.4 -2.74,-0.69 -3.99,-1.74 -13.27,-6.31 -18.68,-6.89 z"
               id="path22" />
            <path
               class="cls-1"
               d="m 137.06,165.3 c 0.36,0.34 0.39,0.91 0.05,1.27 l -0.07,0.08 c -0.39,-0.46 -0.78,-0.92 -1.16,-1.38 0.34,-0.29 0.85,-0.28 1.19,0.03 z"
               id="path23" />
            <path
               class="cls-1"
               d="m 133.41,170.13 c -0.22,0 -0.44,-0.08 -0.61,-0.24 -0.36,-0.34 -0.39,-0.91 -0.05,-1.27 l 3.04,-3.27 c 0,0 0.06,-0.05 0.08,-0.08 0.38,0.46 0.77,0.92 1.16,1.38 l -2.96,3.19 c -0.18,0.19 -0.42,0.29 -0.66,0.29 z"
               id="path24" />
            <path
               class="cls-1"
               d="m 138.85,168.64 c 0.36,-0.34 0.93,-0.33 1.27,0.03 0.34,0.36 0.33,0.93 -0.03,1.27 l -0.05,0.05 c -0.4,-0.42 -0.81,-0.85 -1.23,-1.32 l 0.03,-0.03 z"
               id="path25" />
            <path
               class="cls-1"
               d="m 136.8,172.76 c -0.24,0 -0.47,-0.09 -0.65,-0.28 -0.34,-0.36 -0.33,-0.93 0.03,-1.27 l 2.64,-2.53 c 0.42,0.46 0.83,0.9 1.23,1.32 l -2.62,2.52 c -0.17,0.17 -0.4,0.25 -0.62,0.25 z"
               id="path26" />
            <polygon
               class="cls-1"
               points="97.23,170.8 107.68,170.8 107.91,144.63 97.46,144.63 "
               id="polygon26" />
            <g
               id="g31">
              <path
                 class="cls-1"
                 d="m 138.46,185.09 c -0.25,1.41 1.07,5.47 -1.71,6.39 -1.29,0.42 -7.17,2.13 -11.98,2.34 -9.51,0.42 -15.16,-4.74 -18.67,-5.92 -3.51,-1.18 -9.62,-0.19 -19.62,-6.02 0.95,-1.67 1.65,-4.95 2.6,-6.62 8.21,-2.79 16.75,1.5 25.08,3.92 8.33,2.42 15.85,4.22 24.31,5.91 z"
                 id="path27" />
              <path
                 class="cls-4"
                 d="m 112.61,160.58 c 0,0 10,13.4 13.22,14.49 3.22,1.09 5.09,3.61 7.02,3.8 1.93,0.19 7.41,1.03 5.41,5.73 -2,4.7 -16.49,4.89 -20.48,3.16 -3.99,-1.74 -13.27,-6.31 -18.68,-6.89 -5.41,-0.58 -9.72,-2.23 -10.05,-5.04 -0.33,-2.81 2.06,-4.62 2,-6.68 -0.06,-2.06 2.51,-5.28 2.58,-6.18 0.07,-0.9 1.09,-2.83 3.41,-0.06 2.32,2.77 3.16,5.35 9.14,3.99 0,0 0.52,-2.45 3.22,-5.02 2.7,-2.57 3.2,-1.29 3.2,-1.29 z"
                 id="path28" />
              <circle
                 class="cls-1"
                 cx="110.41"
                 cy="167.99001"
                 r="0.93000001"
                 id="circle28" />
              <g
                 class="cls-5"
                 clip-path="url(#clippath-1)"
                 id="g29">
                <path
                   class="cls-6"
                   d="m 120.49,183.3 c -5.72,-1.41 -11.14,-3.87 -16.85,-5.3 -3.76,-0.94 -7.88,-1.55 -10.68,-4.23 -0.7,-0.67 -1.34,-1.48 -2.26,-1.76 -1.33,-0.42 -2.81,0.48 -3.45,1.72 -0.64,1.24 -0.62,2.71 -0.43,4.1 1.09,7.82 7.25,14.26 14.47,17.44 7.22,3.18 15.37,3.55 23.25,3.04 3.7,-0.24 7.48,-0.69 10.78,-2.38 3.3,-1.69 6.05,-4.86 6.3,-8.56 0.09,-1.29 -0.15,-2.64 -0.89,-3.7 -0.61,-0.88 -1.97,-1.9 -3.1,-1.51 -1.26,0.43 -2.38,1.16 -3.71,1.51 -2.8,0.74 -5.75,0.81 -8.62,0.5 -1.62,-0.17 -3.22,-0.47 -4.8,-0.86 z"
                   id="path29" />
              </g>
              <path
                 class="cls-1"
                 d="m 115.47,172.17 c 0.24,0 0.48,-0.1 0.66,-0.29 l 3.04,-3.27 c 0.34,-0.36 0.32,-0.93 -0.05,-1.27 -0.36,-0.34 -0.93,-0.32 -1.27,0.05 l -3.04,3.27 c -0.34,0.36 -0.32,0.93 0.05,1.27 0.17,0.16 0.39,0.24 0.61,0.24 z"
                 id="path30" />
              <path
                 class="cls-1"
                 d="m 118.86,174.79 c 0.22,0 0.45,-0.08 0.62,-0.25 l 2.67,-2.57 c 0.36,-0.34 0.37,-0.91 0.03,-1.27 -0.34,-0.36 -0.91,-0.37 -1.27,-0.03 l -2.67,2.57 c -0.36,0.34 -0.37,0.91 -0.03,1.27 0.18,0.18 0.41,0.28 0.65,0.28 z"
                 id="path31" />
            </g>
          </g>
          <g
             id="g35">
            <path
               class="cls-6"
               d="m 65.97,123.61 c 5.74,-2.81 4.67,-19.65 42.24,-22.87 1.08,-0.09 2.63,-8.92 -0.93,-10.98 -47.92,-27.77 -7.7,-78.41 22.98,-65.16 7.52,3.25 18.62,9.62 18.62,33 0,10.12 4.45,24.42 -10.02,26.31 -16.02,2.1 13.24,19 13.24,39.08 0,25.31 -22.97,25.88 -31.98,25.85 -34.56,-0.11 -51.73,4.43 -70.02,-15.85 -6.4,-7.11 10.24,-6.63 15.88,-9.39 z"
               id="path32" />
            <g
               class="cls-10"
               clip-path="url(#clippath-2)"
               id="g34">
              <path
                 class="cls-9"
                 d="m 105.25,93.78 c -5.45,2.28 -7.98,5.27 -13.84,6.05 -2.52,0.34 -5.45,0.39 -7.2,-1.45 -1.16,-1.23 -1.51,-3.06 -1.27,-4.73 0.24,-1.67 0.97,-3.23 1.75,-4.73 3.67,-7.09 13.43,-20.64 18.91,-26.44 0,0 -4.29,13.19 -3.34,17.86 1.58,7.79 3.4,9.98 5.87,10.54 -1.87,0.73 0.98,2.12 -0.88,2.89 z"
                 id="path33" />
              <path
                 class="cls-9"
                 d="m 114.87,50.93 c -1.01,0.38 -2.15,0.72 -3.14,0.3 -1.75,-0.73 -1.87,-3.14 -1.6,-5.01 1.11,-7.91 4,-15.56 8.4,-22.23 1.46,-2.21 3.22,-4.42 5.72,-5.31 2.73,-0.96 5.84,-0.1 8.23,1.55 2.1,1.45 4.74,3.88 5.83,6.24 1.14,2.48 -0.9,5.13 -2.2,7.16 -3.18,4.99 -7.4,9.32 -12.29,12.65 -2.78,1.9 -5.79,3.47 -8.94,4.65 z"
                 id="path34" />
            </g>
          </g>
          <path
             class="cls-4"
             d="m 146.23,75.19 -0.05,-0.43 c 0.07,0.8 0.73,1.42 1.53,1.45 l 19.64,4 c 1.5,0.05 2.25,-3.94 -1.29,-6.16 -2.46,-1.55 -5.95,-3.31 -10.92,-7.77 -3.51,-3.14 -5.26,-10.61 -6.62,-13.24 -1.56,-3.03 -11.17,7.27 -2.29,22.16 z"
             id="path35" />
          <path
             class="cls-4"
             d="m 146.23,75.19 c 0,0 -0.88,3.54 -5.99,6.61 -1.04,0.62 0.16,2.34 1.33,2.1 l 24.86,-1.49 c 0.76,-0.16 0.74,-1.28 -0.03,-1.4 l -20.18,-5.82 z"
             id="path36" />
          <path
             class="cls-7"
             d="m 167.03,81.42 c -4.52,0 -8.96,-0.72 -13.2,-2.14 -2.8,-0.94 -5.52,-2.19 -8.07,-3.72 -0.68,-0.41 -0.91,-1.29 -0.5,-1.98 0.41,-0.68 1.29,-0.91 1.98,-0.5 2.38,1.42 4.9,2.58 7.51,3.46 3.99,1.34 8.16,2.01 12.41,2 v 0 c 0.79,0 1.44,0.64 1.44,1.44 0,0.8 -0.64,1.44 -1.44,1.45 -0.05,0 -0.09,0 -0.14,0 z"
             id="path37" />
          <ellipse
             class="cls-1"
             cx="133.08"
             cy="52.5"
             rx="3.79"
             ry="7.1199999"
             id="ellipse37" />
          <ellipse
             class="cls-1"
             cx="149.12"
             cy="63.130001"
             rx="1.12"
             ry="2.79"
             transform="rotate(-17.73,149.12007,63.122732)"
             id="ellipse38" />
          <ellipse
             class="cls-2"
             cx="136.05"
             cy="51.59"
             rx="2.47"
             ry="1.87"
             id="ellipse39" />
          <path
             class="cls-4"
             d="m 135.61,109.16 c 6.27,1.89 8.77,13.79 8.77,13.79 l -4.12,1.95 -3.6,-4.95 c -1.13,1 -3.54,1.9 -5.68,0.31 -6.1,-4.52 -1.26,-12.88 4.63,-11.1 z"
             id="path39" />
          <rect
             class="cls-8"
             x="134.64999"
             y="113.56"
             width="4.4699998"
             height="2.4200001"
             transform="rotate(150,136.88222,114.76859)"
             id="rect39" />
          <path
             class="cls-9"
             d="m 62.79,118.89 v 0 c -6.59,-3.8 -4.65,-13.77 2.88,-14.86 1.06,-0.15 19.62,-0.24 33.05,-0.29 8.23,-0.03 13.65,8.69 9.86,16 -5.81,11.19 -17.5,18.84 -30.98,18.84 -4.91,0 -9.59,-1.02 -13.83,-2.85 -7.12,-3.08 -7.69,-12.96 -0.97,-16.84 v 0 z"
             id="path40" />
          <path
             class="cls-6"
             d="m 62.79,114.99 v 0 c -6.59,-3.8 -4.65,-13.77 2.88,-14.86 1.06,-0.15 19.62,-0.24 33.05,-0.29 8.23,-0.03 13.65,8.69 9.86,16 -5.81,11.19 -17.5,18.84 -30.98,18.84 -4.91,0 -9.59,-1.02 -13.83,-2.85 -7.12,-3.08 -7.69,-12.96 -0.97,-16.84 v 0 z"
             id="path41" />
          <g
             id="g43">
            <path
               class="cls-4"
               d="m 81.08,42.17 c -1.62,0.14 -3.18,-0.85 -3.7,-2.47 -0.6,-1.88 0.44,-3.89 2.31,-4.49 1.59,-0.51 3.26,0.16 4.11,1.51 9.59,-16.35 24.21,-18 33.74,-16.96 l 18.38,-9.68 c 1.76,-0.93 3.75,0.72 3.17,2.63 -9.19,30.13 -24.9,43.49 -33.02,48.62 -0.08,0.05 -0.15,0.08 -0.23,0.12 L 96.58,78.73 C 95.04,81.6 91.39,82.28 89.29,80.09 83.18,73.7 73.68,60.06 81.08,42.17 Z"
               id="path42" />
            <path
               class="cls-1"
               d="m 117.74,20.41 -12.36,37.32 c -0.67,2.02 1.54,3.72 3.31,2.56 7.94,-5.24 23.25,-18.78 31.78,-48.81 0.54,-1.9 -1.46,-3.49 -3.19,-2.54 l -18.48,10.2 c -0.5,0.28 -0.88,0.73 -1.06,1.27 z"
               id="path43" />
            <circle
               class="cls-1"
               cx="80.919998"
               cy="38.580002"
               r="3.73"
               id="circle43" />
          </g>
          <path
             class="cls-1"
             d="m 131.09,44.36 c 0,0 3.97,-1.83 6.09,-2.93 2.12,-1.1 1.31,-3.2 -0.71,-2.8 -2.02,0.4 -6.77,1.59 -6.69,1.62 -1.46,0.47 -2.35,1.77 -1.99,2.9 v 0 c 0.36,1.14 1.84,1.68 3.3,1.21 z"
             id="path44" />
          <ellipse
             class="cls-2"
             cx="163.77"
             cy="75.889999"
             rx="0.87"
             ry="2.75"
             transform="rotate(-71.2,163.76514,75.887929)"
             id="ellipse44" />
        </g>
      </g>
    </g>
  </g>
</svg>
